<?xml version="1.0" encoding="utf-8"?>
<!-- Generator: Adobe Illustrator 27.5.0, SVG Export Plug-In . SVG Version: 6.00 Build 0)  -->
<svg version="1.1" xmlns="http://www.w3.org/2000/svg" xmlns:xlink="http://www.w3.org/1999/xlink" x="0px" y="0px"
	 viewBox="0 0 500 500" style="enable-background:new 0 0 500 500;" xml:space="preserve">
<g id="BACKGROUND">
	<rect style="fill:#FFFFFF;" width="500" height="500"/>
</g>
<g id="OBJECTS">
	<g>
		<g>
			<g>
				<path style="fill:#E5E5E5;" d="M110.674,101.854c-0.028,2.159-0.796,4.554-2.011,6.674c-1.215,2.12-2.877,3.964-4.692,5.021
					l-47.58,27.714c-3.631,2.115-6.555,0.312-6.498-4.006c0.012-0.916,0.158-1.878,0.414-2.838c0.347-1.306,0.899-2.618,1.598-3.836
					c0.902-1.574,2.051-2.996,3.326-4.057c0.523-12.66,9.253-27.634,19.808-33.782c6.906-4.023,12.92-3.292,16.307,1.124
					c0.976-0.932,2.012-1.73,3.088-2.357c0.333-0.194,0.66-0.365,0.981-0.516c5.152-2.416,9.119,0.402,9.037,6.693
					c0,0.003,0,0.003,0,0.007C107.953,95.826,110.729,97.647,110.674,101.854z"/>
			</g>
			<g>
				<path style="fill:#E5E5E5;" d="M146.114,54.858c-0.019,1.444-0.533,3.045-1.345,4.463c-0.812,1.417-1.924,2.651-3.137,3.358
					l-31.816,18.532c-2.428,1.414-4.383,0.209-4.345-2.679c0.008-0.612,0.106-1.256,0.277-1.898
					c0.232-0.873,0.601-1.751,1.068-2.565c0.603-1.053,1.371-2.004,2.224-2.713c0.35-8.466,6.187-18.479,13.246-22.59
					c4.618-2.69,8.64-2.202,10.904,0.751c0.652-0.623,1.346-1.157,2.065-1.576c0.223-0.13,0.441-0.244,0.656-0.345
					c3.445-1.616,6.098,0.269,6.043,4.475c0,0.002,0,0.002,0,0.004C144.294,50.827,146.151,52.045,146.114,54.858z"/>
			</g>
		</g>
		<g>
			<g>
				<path style="fill:#E5E5E5;" d="M400.382,120.245c0.028,2.159,0.796,4.554,2.011,6.674c1.215,2.12,2.877,3.964,4.692,5.021
					l47.58,27.714c3.631,2.115,6.555,0.312,6.498-4.006c-0.012-0.916-0.158-1.878-0.414-2.838c-0.347-1.306-0.899-2.618-1.598-3.836
					c-0.902-1.574-2.051-2.996-3.325-4.057c-0.523-12.66-9.253-27.634-19.808-33.782c-6.906-4.023-12.92-3.292-16.307,1.124
					c-0.976-0.932-2.012-1.73-3.088-2.357c-0.333-0.194-0.66-0.365-0.981-0.516c-5.152-2.417-9.119,0.402-9.037,6.693
					c0,0.003,0,0.003,0,0.007C403.104,114.217,400.327,116.038,400.382,120.245z"/>
			</g>
			<g>
				<path style="fill:#E5E5E5;" d="M364.942,73.249c0.019,1.444,0.532,3.045,1.345,4.463c0.813,1.418,1.924,2.651,3.137,3.358
					l31.816,18.532c2.428,1.414,4.383,0.209,4.346-2.679c-0.008-0.612-0.106-1.256-0.277-1.898
					c-0.232-0.873-0.601-1.751-1.068-2.565c-0.603-1.053-1.371-2.004-2.224-2.713c-0.349-8.466-6.187-18.479-13.246-22.59
					c-4.618-2.69-8.64-2.202-10.904,0.751c-0.652-0.623-1.346-1.157-2.065-1.576c-0.223-0.13-0.441-0.244-0.656-0.345
					c-3.445-1.616-6.098,0.269-6.043,4.475c0,0.002,0,0.002,0,0.004C366.762,69.218,364.906,70.436,364.942,73.249z"/>
			</g>
		</g>
	</g>
	<g>
		<path style="fill:#E5E5E5;" d="M418.07,312.601l21.991,14.673c3.166,2.099,3.021,6.795-0.269,8.695l-125.744,72.598
			c-4.688,2.707-10.466,2.696-15.144-0.027L52.129,264.898c-2.318-1.341-2.376-4.667-0.106-6.089l15.568-9.749l231.964,130.314
			L418.07,312.601z"/>
		<g>
			<g>
				<path style="fill:#001350;" d="M429.169,292.063l-0.001,29.034c0,2.236-1.189,4.303-3.121,5.426l-107.261,62.346l-0.958,0.554
					c-0.003,0.003-0.008,0.005-0.01,0.008l-2.32,1.349c-0.003,0-0.005,0.003-0.008,0.003c-1.835,0.818-3.647,1.077-5.294,1.032
					l0.72-31.455L429.169,292.063z"/>
				<path style="fill:#26246C;" d="M310.917,360.359l-0.72,31.455c-3.045-0.084-5.535-1.205-6.613-1.774
					c-0.018-0.01-0.033-0.018-0.048-0.025l-0.521-0.3L71.688,256.159c-2.536-1.464-4.097-4.17-4.097-7.098v-28.187L310.917,360.359z
					"/>
				<polygon style="fill:#FFFFFF;" points="385.307,285.615 283.103,345.004 84.366,230.259 187.254,171.281 				"/>
				<polygon style="fill:#FFFFFF;" points="385.307,285.615 283.103,345.004 84.366,230.259 187.254,171.281 				"/>
				<g>
					<g>
						<path style="fill:#586197;" d="M397.114,330.938v4.262c0,0.338-0.181,0.653-0.475,0.823l-40.965,23.65
							c-0.633,0.366-1.423-0.092-1.423-0.823v-4.262c0-0.338,0.18-0.653,0.475-0.823l40.965-23.65
							C396.324,329.748,397.114,330.206,397.114,330.938z"/>
					</g>
					<g>
						<path style="fill:#3B3E7D;" d="M397.114,330.938v2.419c0,0.338-0.181,0.653-0.475,0.823l-40.965,23.65
							c-0.633,0.366-1.423-0.091-1.423-0.823v-2.419c0-0.338,0.18-0.653,0.475-0.823l40.965-23.65
							C396.324,329.748,397.114,330.206,397.114,330.938z"/>
					</g>
				</g>
				<g>
					<path style="fill:#586197;" d="M336.937,368.797c-0.125,2.539-1.285,4.544-2.589,4.48c-0.156-0.008-0.306-0.045-0.45-0.109
						c-1.063-0.465-1.793-2.369-1.682-4.604c0.107-2.155,0.958-3.927,2.009-4.371c0.187-0.082,0.38-0.119,0.578-0.109
						C336.107,364.148,337.063,366.258,336.937,368.797z"/>
					<path style="fill:#3B3E7D;" d="M335.909,368.797c-0.107,2.155-0.958,3.925-2.011,4.371c-1.063-0.465-1.793-2.369-1.682-4.604
						c0.107-2.155,0.958-3.927,2.009-4.371C335.29,364.658,336.02,366.56,335.909,368.797z"/>
				</g>
				<g>
					<path style="fill:#3B3E7D;" d="M69.386,223.887l232.559,134.268c5.104,2.947,11.394,2.939,16.491-0.021l108.891-63.232
						c2.461-1.429,2.456-4.984-0.008-6.407L189.124,150.973c-1.142-0.659-2.548-0.661-3.692-0.006L69.397,217.469
						C66.92,218.889,66.914,222.46,69.386,223.887z"/>
					<ellipse style="fill:#586197;" cx="355.994" cy="313.239" rx="15.532" ry="7.973"/>
					<polygon style="fill:#7581BC;" points="385.317,276.076 345.884,299.004 328.013,309.358 291.245,330.749 283.113,335.464 
						250.241,316.5 217.71,297.706 199.839,287.386 155.315,261.69 114.31,238.01 84.377,220.719 114.31,203.566 155.315,180.056 
						187.264,161.741 199.839,168.985 217.71,179.305 250.241,198.098 291.245,221.779 328.013,242.999 345.884,253.318 					"/>
					<g>
						<linearGradient id="SVGID_1_" gradientUnits="userSpaceOnUse" x1="152.2399" y1="-53.3394" x2="129.8754" y2="313.641">
							<stop  offset="0" style="stop-color:#FFFFFF"/>
							<stop  offset="1" style="stop-color:#FFFFFF;stop-opacity:0"/>
						</linearGradient>
						<polygon style="fill:url(#SVGID_1_);" points="155.315,180.056 155.315,261.69 114.31,238.01 114.31,203.566 						"/>
						
							<linearGradient id="SVGID_00000037660328399186612820000002365443148751399081_" gradientUnits="userSpaceOnUse" x1="330.9078" y1="-124.2087" x2="267.6923" y2="284.1291">
							<stop  offset="0" style="stop-color:#FFFFFF"/>
							<stop  offset="1" style="stop-color:#FFFFFF;stop-opacity:0"/>
						</linearGradient>
						<polygon style="fill:url(#SVGID_00000037660328399186612820000002365443148751399081_);" points="291.245,221.779 
							291.245,330.749 283.113,335.464 250.241,316.5 250.241,198.098 						"/>
						
							<linearGradient id="SVGID_00000008148247102859056320000003354812997588227221_" gradientUnits="userSpaceOnUse" x1="225.9719" y1="-48.8461" x2="203.6073" y2="318.1352">
							<stop  offset="0" style="stop-color:#FFFFFF"/>
							<stop  offset="1" style="stop-color:#FFFFFF;stop-opacity:0"/>
						</linearGradient>
						<polygon style="fill:url(#SVGID_00000008148247102859056320000003354812997588227221_);" points="217.71,179.305 
							217.71,297.706 199.839,287.386 199.839,168.985 						"/>
						
							<linearGradient id="SVGID_00000109745300671545344700000001997047008306666133_" gradientUnits="userSpaceOnUse" x1="355.9578" y1="-40.9251" x2="333.5933" y2="326.056">
							<stop  offset="0" style="stop-color:#FFFFFF"/>
							<stop  offset="1" style="stop-color:#FFFFFF;stop-opacity:0"/>
						</linearGradient>
						<polygon style="fill:url(#SVGID_00000109745300671545344700000001997047008306666133_);" points="345.884,253.318 
							345.884,299.004 328.013,309.358 328.013,242.999 						"/>
					</g>
				</g>
			</g>
		</g>
		<g>
			<polygon style="opacity:0.2;fill:#001350;" points="289.592,305.024 360.715,261.877 291.245,221.779 254.998,285.225 			"/>
			<g>
				<g>
					<path style="fill:#3C80FB;" d="M171.233,138.044v99.269c0,1.376,0.734,2.646,1.92,3.334l57.839,32.962l54.962,31.321
						c0.773,0.44,1.601,0.581,2.385,0.479c1.814-0.232,3.376-1.76,3.376-3.828v-98.449c0-1.376-0.734-2.649-1.927-3.336
						l-112.774-65.089C174.443,133.225,171.233,135.079,171.233,138.044z"/>
					
						<ellipse transform="matrix(0.9507 -0.31 0.31 0.9507 -54.8194 79.0663)" style="fill:#579DFF;" cx="221.339" cy="211.999" rx="20.256" ry="21.955"/>
					<g>
						<path style="fill:#18285D;" d="M171.233,210.919v26.394c0,1.376,0.734,2.646,1.92,3.334l57.839,32.962l-20.915-63.29
							l-9.393-27.113l-19.808,18.726L171.233,210.919z"/>
						<polygon style="fill:#FFFFFF;" points="180.873,201.932 184.962,209.403 195.658,207.143 202.516,216.587 210.076,210.319 
							200.684,183.206 						"/>
						<path style="fill:#3B3E7D;" d="M192.66,251.764l38.332,21.845l54.962,31.321c0.773,0.44,1.601,0.581,2.385,0.479
							l-26.25-75.786l-11.347-32.76l-23.938,22.628L192.66,251.764z"/>
						<polygon style="fill:#FFFFFF;" points="226.803,219.491 231.743,228.518 244.666,225.788 251.989,236.54 262.088,229.624 
							250.74,196.865 						"/>
					</g>
				</g>
				<g>
					<polygon style="fill:#0041C6;" points="300.754,200.85 300.754,226.643 296.294,229.218 296.681,203.219 					"/>
					<polygon style="fill:#2E60E0;" points="273.585,189.884 273.585,216.107 296.294,229.218 296.681,203.219 					"/>
					<g>
						<path style="fill:#FFFFFF;" d="M283.55,217.769L283.55,217.769c0.898,0.458,1.637-0.024,1.65-1.077l0.156-12.623
							c0.013-1.053-0.705-2.278-1.603-2.736l0,0c-0.898-0.458-1.637,0.024-1.65,1.077l-0.156,12.623
							C281.934,216.086,282.651,217.311,283.55,217.769z"/>
						<path style="fill:#FFFFFF;" d="M276.64,205.976L276.64,205.976c-0.013,1.053,0.705,2.278,1.603,2.736l10.77,5.491
							c0.898,0.458,1.637-0.024,1.65-1.077l0,0c0.013-1.053-0.705-2.278-1.603-2.736l-10.77-5.491
							C277.392,204.441,276.653,204.923,276.64,205.976z"/>
					</g>
					<polygon style="fill:#3C80FB;" points="300.754,200.85 277.657,187.515 273.585,189.884 296.681,203.219 					"/>
				</g>
			</g>
		</g>
	</g>
	<g>
		<ellipse style="fill:#E5E5E5;" cx="231.617" cy="147.922" rx="25.197" ry="8.143"/>
		<g>
			<g>
				<path style="fill:#3B3E7D;" d="M249.748,110.873v31.994c0,5.337-8.122,9.661-18.131,9.661c-10.009,0-18.123-4.324-18.123-9.661
					v-31.994H249.748z"/>
				<ellipse style="fill:#26246C;" cx="231.618" cy="110.87" rx="18.128" ry="9.668"/>
				<path style="fill:#001350;" d="M247.475,110.873c0,0.331-0.114,0.692-0.349,1.084c-1.402,2.378-7.046,5.568-15.509,5.568
					c-8.463,0-14.108-3.19-15.509-5.568c-0.235-0.391-0.349-0.753-0.349-1.084c0-2.348,6.023-6.662,15.858-6.662
					C241.452,104.212,247.475,108.526,247.475,110.873z"/>
			</g>
			<g>
				<path style="fill:#2E60E0;" d="M231.503,109.054l-1.311-1.048l-0.695-0.557l-1.97-1.576c0,0,4.702-45.658,24.101-47.385
					c5.972-0.532,10.343,6.777-1.878,20.439C238.421,91.591,231.503,109.054,231.503,109.054z"/>
				<g>
					<path style="fill:#0041C6;" d="M230.192,108.005l-0.695-0.557c2.409-10.127,6.862-19.632,10.327-26.053
						c4.114-7.625,7.764-12.674,7.801-12.723c0.13-0.18,0.382-0.22,0.561-0.089c0.18,0.13,0.221,0.382,0.09,0.561
						c-0.037,0.051-3.661,5.064-7.75,12.645C237.045,88.243,232.56,97.829,230.192,108.005z"/>
				</g>
			</g>
			<g>
				<path style="fill:#2E60E0;" d="M221.88,94.575l0.997-1.351l0.528-0.717l1.497-2.031c0,0-16.319-42.901-35.507-39.566
					c-5.907,1.027-8.245,9.216,7.087,19.263C210.693,79.488,221.88,94.575,221.88,94.575z"/>
				<g>
					<path style="fill:#0041C6;" d="M222.877,93.224l0.528-0.717c-4.94-9.163-11.693-17.198-16.697-22.508
						c-5.942-6.306-10.77-10.242-10.818-10.281c-0.172-0.141-0.426-0.114-0.565,0.059c-0.141,0.172-0.114,0.426,0.058,0.566
						c0.049,0.039,4.843,3.948,10.749,10.218C211.159,75.898,217.964,84.003,222.877,93.224z"/>
				</g>
			</g>
			<g>
				<path style="fill:#3C80FB;" d="M236.251,111.891c-1.211-5.414-5.873-28.283-3.48-49.657
					c2.953-26.373-8.338-31.328-14.937-25.689c-19.971,17.065,7.106,68.405,10.901,75.345H236.251z"/>
				<g>
					<path style="fill:#2E60E0;" d="M233.673,111.891c-5.456-13.689-8.106-28.269-9.382-38.539
						c-1.539-12.375-1.47-21.331-1.469-21.421c0.003-0.321-0.255-0.585-0.578-0.587c-0.322-0.005-0.585,0.254-0.588,0.576
						c-0.002,0.089-0.071,9.108,1.475,21.556c1.271,10.237,3.9,24.732,9.289,38.414H233.673z"/>
				</g>
			</g>
		</g>
	</g>
	<g>
		<path style="fill:#586197;" d="M144.364,175.471c0,0.752-1.188,1.362-2.653,1.362c-1.465,0-2.653-0.61-2.653-1.362
			c0-0.752,1.188-1.362,2.653-1.362C143.176,174.109,144.364,174.718,144.364,175.471z"/>
		<g>
			<path style="fill:#586197;" d="M134.495,180.14c0.283,0.163,0.283,0.573-0.001,0.735l-21.117,12.103l-3.817,2.186
				c-0.131,0.075-0.292,0.075-0.423-0.001l-1.512-0.873c-0.283-0.163-0.283-0.573,0.001-0.735l5.751-3.295l19.184-10.994
				c0.131-0.075,0.292-0.075,0.423,0.001L134.495,180.14z"/>
		</g>
	</g>
	<g>
		
			<ellipse transform="matrix(0.2925 -0.9563 0.9563 0.2925 -240.9741 298.7501)" style="fill:#E5E5E5;" cx="81.409" cy="312.226" rx="14.256" ry="31.422"/>
		<g>
			<g>
				<path style="fill:#3C80FB;" d="M116.336,177.908c-0.013,0.104-0.028,0.208-0.048,0.315c-0.025,0.175-0.058,0.356-0.097,0.536
					c-1.944,9.571-15.932,25.544-15.932,25.544l-7.179-4.193c6.816-9.149,14.359-28.113,14.359-28.113l4.73,3.141L116.336,177.908z"
					/>
				<g>
					<g>
						<path style="fill:#3C80FB;" d="M121.873,166.481c-0.877,4.384-3.075,8.288-5.235,11.269c-0.119,0.16-0.234,0.318-0.351,0.473
							c-0.094,0.124-0.186,0.246-0.277,0.366c-0.63,0.821-1.245,1.56-1.812,2.203c-0.986-1.233-2.071-2.376-3.08-3.591
							c-0.808-0.973-1.451-2.071-2.16-3.113c-0.47-0.694-0.968-1.418-1.52-2.092c4.595-10.079,8.554-31.196,8.554-31.196
							S123.838,156.666,121.873,166.481z"/>
					</g>
				</g>
				<g>
					<path style="fill:#2E60E0;" d="M116.638,177.75c-0.119,0.16-0.234,0.318-0.351,0.473c-0.025,0.175-0.058,0.356-0.097,0.536
						c-0.058-0.056-0.117-0.112-0.18-0.17c-0.907-0.836-2.249-1.853-3.901-2.455c-0.198-0.074-0.325-0.252-0.34-0.447
						c-0.008-0.074,0.003-0.147,0.028-0.218c0.061-0.17,0.203-0.29,0.371-0.33c0.094-0.02,0.198-0.015,0.297,0.02
						C114.229,175.803,115.657,176.858,116.638,177.75z"/>
				</g>
			</g>
			<g>
				<g>
					<g>
						<path style="fill:#3C80FB;" d="M79.235,292.646c1.044,0.344,1.795,1.286,1.958,2.393c0.143,0.968,0.257,2.352,0.201,4.188
							c-0.126,4.096-0.178,5.82-0.178,5.82s-1.234,2.106-4.788,2.693l-1.362,0.22c0,0-7.726,4.761-11.481,5.133
							c-4.901,0.485-9.909-1.768-5.856-6.536c3.828-4.503,9.457-6.307,11.12-9.914c0.194-0.421,1.45-1.317,1.77-1.648
							C73.334,292.186,75.423,291.391,79.235,292.646z"/>
					</g>
					<g>
						<g>
							<g>
								<path style="fill:#FFFFFF;" d="M70.84,301.393c-0.177,0-0.346-0.104-0.42-0.277c-0.006-0.013-0.627-1.418-1.781-1.803
									c-1.106-0.369-2.293,0.594-2.305,0.604c-0.195,0.16-0.482,0.133-0.643-0.061c-0.161-0.194-0.134-0.481,0.059-0.642
									c0.064-0.053,1.585-1.299,3.178-0.768c1.547,0.516,2.3,2.237,2.331,2.31c0.099,0.232-0.008,0.501-0.24,0.6
									C70.961,301.381,70.9,301.393,70.84,301.393z"/>
							</g>
						</g>
						<g>
							<g>
								<path style="fill:#FFFFFF;" d="M69.241,302.535c-0.177,0-0.346-0.104-0.42-0.277c-0.006-0.013-0.626-1.418-1.781-1.803
									c-1.106-0.37-2.293,0.594-2.305,0.604c-0.194,0.16-0.482,0.133-0.643-0.061c-0.161-0.194-0.135-0.481,0.059-0.642
									c0.064-0.053,1.585-1.299,3.178-0.768c1.547,0.516,2.3,2.237,2.331,2.31c0.099,0.232-0.008,0.501-0.24,0.6
									C69.362,302.523,69.301,302.535,69.241,302.535z"/>
							</g>
						</g>
						<g>
							<g>
								<path style="fill:#FFFFFF;" d="M67.418,303.557c-0.177,0-0.346-0.104-0.42-0.277c-0.006-0.013-0.627-1.418-1.781-1.803
									c-1.106-0.369-2.293,0.594-2.305,0.604c-0.195,0.16-0.482,0.133-0.643-0.061c-0.161-0.194-0.134-0.481,0.059-0.642
									c0.064-0.053,1.585-1.299,3.179-0.768c1.547,0.516,2.3,2.237,2.331,2.31c0.1,0.232-0.008,0.501-0.24,0.6
									C67.539,303.545,67.478,303.557,67.418,303.557z"/>
							</g>
						</g>
					</g>
					<g>
						<path style="fill:#FCB38F;" d="M80.682,284.794l-2.122,9.917c0,0-3.256,2.543-6.869,0.85l1.746-10.711
							C73.439,284.851,78.19,283.363,80.682,284.794z"/>
					</g>
				</g>
				<path style="fill:#001350;" d="M112.481,208.115c0,0-35.039,14.717-36.811,22.021c-1.772,7.305-4.85,58.105-4.85,58.105
					s4.729,2.667,9.958,1.63c0,0,3.161-17.013,4.638-21.578c1.477-4.565,4.824-21.06,5.366-27.138c0,0,28.684-11.219,32.666-18.01
					C132.197,208.227,112.481,208.115,112.481,208.115z"/>
				<path style="fill:#3B3E7D;" d="M70.278,284.38l-0.562,4.997c0,0,5.267,2.692,11.367,1.917l0.707-4.433
					C81.79,286.861,74.763,286.319,70.278,284.38z"/>
			</g>
			<path style="fill:#001350;" d="M150.136,206.719c0,0,3.065,13.759,0.44,24.991c-2.124,9.092-38.392-0.701-39.154-9.12
				c-0.762-8.419,3.558-20.173,3.558-20.173L150.136,206.719z"/>
			<g>
				<g>
					<path style="fill:#579DFF;" d="M112.481,208.115c13.413,4.563,27.417,7.507,38.483,0.172
						c-1.969-10.978-3.8-25.276-2.688-31.738c1.857-10.78,12.288-29.004,3.516-32.883c-2.083-0.922-5.346-1.818-9.073-2.637
						c-4.957-1.088-10.768-2.048-15.875-2.791c-2.41-0.358-5.157-0.265-6.756-0.036c-3.618,0.517-4.9,2.114-3.884,5.711
						c1.242,4.404,1.417,9.132-0.685,13.935c-3.537,8.08,1.938,12.464,2.741,19.647C118.896,183.278,114.611,199.22,112.481,208.115
						z"/>
				</g>
				<g>
					<path style="fill:#FFFFFF;" d="M131.691,151.863c-0.952,0-1.864-0.272-2.712-0.817c-5.413-3.48-2.396-12.837-2.265-13.233
						l0.965,0.319c-0.03,0.09-2.901,9.005,1.85,12.06c1.387,0.892,2.946,0.876,4.634-0.045c3.611-1.971,6.542-7.354,6.542-9.823
						h1.016c0,3.022-3.329,8.673-7.071,10.715C133.642,151.588,132.647,151.863,131.691,151.863z"/>
				</g>
				<g>
					<path style="fill:#3C80FB;" d="M133.028,177.908c-9.322,0-14.317-2.669-14.564-2.805c-0.252-0.138-0.344-0.454-0.206-0.706
						c0.138-0.251,0.454-0.344,0.705-0.206l0,0c0.07,0.038,7.118,3.784,19.91,2.338c0.285-0.033,0.543,0.173,0.575,0.458
						c0.032,0.285-0.173,0.543-0.458,0.575C136.84,177.806,134.851,177.908,133.028,177.908z"/>
				</g>
				<g>
					<path style="fill:#3C80FB;" d="M130.822,159.061c-0.05,0-0.101-0.007-0.151-0.023c-5.828-1.773-7.145-5.769-7.198-5.938
						c-0.086-0.274,0.066-0.566,0.34-0.652c0.272-0.085,0.564,0.065,0.651,0.338c0.049,0.152,1.237,3.654,6.509,5.257
						c0.275,0.084,0.43,0.374,0.346,0.648C131.251,158.917,131.045,159.061,130.822,159.061z"/>
				</g>
				<g>
					<path style="fill:#3C80FB;" d="M138.19,205.761c-12.807,0-20.05-7.047-20.352-7.347c-0.204-0.202-0.205-0.531-0.003-0.734
						c0.202-0.204,0.531-0.205,0.735-0.003c0.071,0.071,7.262,7.046,19.62,7.046c0.285-0.006,0.523,0.231,0.523,0.52
						c0,0.287-0.233,0.52-0.52,0.52C138.192,205.761,138.191,205.761,138.19,205.761z"/>
				</g>
				<g>
					<path style="fill:#3C80FB;" d="M136.708,203.362c-0.004,0-0.009,0-0.013,0c-4.775-0.117-10.789-3.972-11.042-4.136
						c-0.241-0.156-0.31-0.477-0.154-0.719c0.156-0.241,0.478-0.31,0.719-0.154c0.06,0.039,6.023,3.86,10.503,3.97
						c0.287,0.007,0.514,0.245,0.507,0.532C137.221,203.138,136.989,203.362,136.708,203.362z"/>
				</g>
			</g>
			<g>
				<g>
					<path style="fill:#18285D;" d="M138.742,131.554c0,0,6.863-2.525,8.232-9.564c1.369-7.039,0.967-17.377-8.64-20.417
						c-9.607-3.04-18.485-0.123-20.628,8.742C117.706,110.316,125.076,127.972,138.742,131.554z"/>
				</g>
				
					<ellipse transform="matrix(0.1635 -0.9865 0.9865 0.1635 16.7542 223.1528)" style="fill:#18285D;" cx="139.963" cy="101.697" rx="10.38" ry="10.38"/>
				<g>
					<g>
						<g>
							<path style="fill:#FCB38F;" d="M127.964,134.917l0.522,4.872l0.292,2.849c5.555,2.393,11.246-1.192,11.184-1.695
								c-0.607-2.161-1.069-5.866-1.221-9.388c-0.097-0.068-0.203-0.125-0.316-0.169
								C135.497,130.111,127.964,134.917,127.964,134.917z"/>
						</g>
						<g>
							<path style="fill:#FD8471;" d="M127.964,134.917l0.522,4.872c5.55-1.964,8.587-6.054,9.939-8.404
								C135.497,130.111,127.964,134.917,127.964,134.917z"/>
						</g>
					</g>
					<g>
						<g>
							<path style="fill:#FD8471;" d="M119.38,119.51c0,0-2.164-2.569-3.535-0.266c-1.371,2.303,1.116,8.737,4.689,6.93
								L119.38,119.51z"/>
						</g>
						<g>
							<path style="fill:#FFFFFF;" d="M118.335,125.118c-0.043,0.255-0.284,0.427-0.539,0.384c-0.255-0.043-0.427-0.284-0.384-0.539
								c0.043-0.255,0.284-0.427,0.539-0.384C118.205,124.622,118.377,124.863,118.335,125.118z"/>
						</g>
						<g>
							<g>
								<path style="fill:#F25339;" d="M119.619,124.194c-0.135,0.008-0.265-0.075-0.311-0.209
									c-0.682-1.991-2.825-2.693-2.846-2.699c-0.163-0.052-0.253-0.226-0.202-0.389s0.225-0.254,0.388-0.202
									c0.1,0.032,2.461,0.797,3.246,3.09c0.055,0.162-0.031,0.338-0.193,0.394C119.674,124.187,119.647,124.192,119.619,124.194z"
									/>
							</g>
						</g>
						<g>
							<g>
								<path style="fill:#F25339;" d="M117.445,123.295c-0.057,0.003-0.116-0.009-0.17-0.04c-0.149-0.084-0.201-0.274-0.117-0.423
									c0.014-0.025,0.353-0.612,1.109-1.002c0.151-0.079,0.339-0.019,0.418,0.133c0.079,0.152,0.019,0.339-0.133,0.418
									c-0.585,0.302-0.852,0.753-0.854,0.757C117.644,123.233,117.547,123.289,117.445,123.295z"/>
							</g>
						</g>
					</g>
					<g>
						<path style="fill:#FCB38F;" d="M117.63,122.728c0.052,0.723,0.127,1.399,0.227,2.011c0.913,5.519,5.763,16.725,15.472,11.016
							c2.329-1.371,4.061-2.725,5.412-4.201c1.02-1.112,1.826-2.295,2.515-3.604c0.266-0.506,0.387-1.074,0.561-1.616
							c0.031-0.095,0.06-0.193,0.088-0.288c0.017-0.055,0.034-0.107,0.05-0.162c0.483-1.584,0.849-3.183,1.134-4.708
							c0.354-1.902,0.58-3.676,0.718-5.135c0.257-2.682-0.926-5.297-3.105-6.883c-5.899-4.298-12.707-3.731-17.284-2.548
							c-3.177,0.82-5.467,3.584-5.681,6.853c-0.105,1.551-0.189,3.319-0.214,5.075C117.506,119.986,117.531,121.43,117.63,122.728z"
							/>
					</g>
					<g>
						<path style="fill:#18285D;" d="M121.711,117.436c-0.01-0.285-0.251-0.507-0.536-0.497c-0.76,0.025-1.714,0.127-2.579,0.423
							c-1.807,0.618-2.053,1.132-2.053,1.132s0.225,0.213,2.592-0.268c0.608-0.123,1.413-0.173,2.111-0.24
							c0.274-0.026,0.476-0.264,0.466-0.54C121.711,117.443,121.711,117.44,121.711,117.436z"/>
					</g>
					<g>
						<path style="fill:#18285D;" d="M127.972,117.071c-0.054-0.337,0.178-0.652,0.515-0.707c0.898-0.145,2.04-0.245,3.124-0.096
							c2.263,0.31,2.67,0.857,2.67,0.857s-0.215,0.302-3.103,0.281c-0.742-0.006-1.699,0.121-2.533,0.203
							c-0.328,0.032-0.619-0.201-0.671-0.526C127.974,117.079,127.973,117.075,127.972,117.071z"/>
					</g>
					<g>
						<g>
							<path style="fill:#FD8471;" d="M126.22,126.986c-0.028-0.005-0.055-0.012-0.082-0.023l-2.028-0.788l0.825-4.929
								c0.038-0.226,0.252-0.379,0.478-0.341c0.226,0.038,0.379,0.252,0.341,0.478l-0.713,4.262l1.398,0.543
								c0.214,0.083,0.32,0.324,0.237,0.537C126.603,126.913,126.41,127.018,126.22,126.986z"/>
						</g>
					</g>
					<g>
						<path style="fill:#FD8471;" d="M137.953,125.887c0,0,1.009,1.953,3.303,2.064c0.202-0.533,0.387-1.074,0.561-1.616
							C140.709,126.533,139.012,126.66,137.953,125.887z"/>
					</g>
					<g>
						<path style="fill:#18285D;" d="M138.742,131.554c1.02-1.112,1.826-2.295,2.515-3.604c0.266-0.506,0.387-1.074,0.561-1.616
							c0.031-0.095,0.06-0.193,0.088-0.288c-0.235,0.01-0.619,0.086-1.248,0.289C140.658,126.335,138.057,129.311,138.742,131.554z"
							/>
					</g>
					<g>
						<path style="fill:#FFFFFF;" d="M122.769,129.135c0.478,1.4,1.782,3.919,4.983,3.491c3.208-0.429,3.785-2.967,3.871-4.675
							L122.769,129.135z"/>
					</g>
					<g>
						<path style="fill:#18285D;" d="M129.656,121.35c0.044,0.778,0.481,1.386,0.975,1.358c0.495-0.028,0.86-0.682,0.816-1.459
							c-0.044-0.778-0.481-1.386-0.976-1.358C129.978,119.918,129.612,120.572,129.656,121.35z"/>
					</g>
					<g>
						<path style="fill:#18285D;" d="M119.467,121.928c0.044,0.778,0.481,1.386,0.975,1.358c0.495-0.028,0.86-0.681,0.816-1.459
							c-0.044-0.778-0.481-1.386-0.975-1.358C119.788,120.496,119.423,121.15,119.467,121.928z"/>
					</g>
					<g>
						<g>
							<path style="fill:#FCB38F;" d="M140.842,120.078c0,0,2.216-2.272,3.35-0.007c1.133,2.265-1.122,7.883-5.061,6.25
								L140.842,120.078z"/>
						</g>
						<g>
							<path style="fill:#FFFFFF;" d="M141.673,125.913c-0.043,0.255-0.284,0.427-0.539,0.384c-0.255-0.043-0.427-0.284-0.384-0.539
								c0.043-0.255,0.284-0.427,0.539-0.384C141.544,125.417,141.716,125.658,141.673,125.913z"/>
						</g>
						<g>
							<g>
								<path style="fill:#FD8471;" d="M140.295,124.476c0.127,0.017,0.254-0.052,0.307-0.176c0.78-1.83,2.847-2.343,2.868-2.348
									c0.157-0.038,0.254-0.196,0.217-0.353c-0.037-0.157-0.195-0.255-0.352-0.218c-0.096,0.023-2.374,0.582-3.272,2.689
									c-0.063,0.149,0.006,0.321,0.155,0.384C140.243,124.466,140.269,124.473,140.295,124.476z"/>
							</g>
						</g>
						<g>
							<g>
								<path style="fill:#FD8471;" d="M142.405,123.778c0.054,0.007,0.11-0.001,0.163-0.026c0.146-0.069,0.209-0.244,0.139-0.39
									c-0.012-0.024-0.29-0.601-0.976-1.021c-0.137-0.085-0.318-0.041-0.403,0.097c-0.085,0.138-0.041,0.318,0.096,0.403
									c0.53,0.325,0.751,0.768,0.753,0.773C142.222,123.707,142.31,123.766,142.405,123.778z"/>
							</g>
						</g>
					</g>
				</g>
				<g>
					<path style="fill:#18285D;" d="M143.429,119.148c-0.964-0.163-1.649-0.101-2.182,0.145c-0.371,0.171-0.669,0.427-0.938,0.757
						c-0.055,0.067-0.109,0.138-0.164,0.213c-0.12-0.049-0.235-0.116-0.343-0.198c-0.246-0.184-0.462-0.446-0.652-0.751
						c-0.507-0.808-1.11-1.407-1.296-2.161c-0.283-1.148-1.535-2.197-1.535-2.197c-9.786,3.045-17.529-5.389-17.529-5.389
						c3.027-9.317,19.484-4.879,23.729-2.624C146.762,109.198,148.239,119.954,143.429,119.148z"/>
				</g>
				<g>
					<path style="fill:#18285D;" d="M120.998,110.225c0,0,0.837,6.476-3.616,8.757C117.382,118.981,115.463,105.844,120.998,110.225
						z"/>
				</g>
			</g>
			<g>
				<g>
					<g>
						<g>
							<path style="fill:#3C80FB;" d="M104.8,302.259c1.044,0.344,1.795,1.286,1.958,2.393c0.143,0.968,0.257,2.352,0.201,4.188
								c-0.126,4.096-0.177,5.767-0.177,5.767s-1.236,2.16-4.789,2.747l-1.045,0.147c0,0-8.042,4.834-11.798,5.206
								c-4.901,0.485-9.909-1.768-5.856-6.536c3.828-4.503,9.457-6.307,11.12-9.914c0.194-0.421,1.45-1.317,1.77-1.648
								C98.899,301.798,100.987,301.003,104.8,302.259z"/>
						</g>
						<g>
							<g>
								<g>
									<path style="fill:#FFFFFF;" d="M96.589,310.913c-0.177,0-0.346-0.104-0.42-0.277c-0.006-0.013-0.626-1.418-1.781-1.803
										c-1.106-0.369-2.293,0.594-2.305,0.604c-0.195,0.16-0.482,0.133-0.643-0.061c-0.161-0.194-0.135-0.481,0.059-0.642
										c0.064-0.053,1.585-1.299,3.178-0.768c1.547,0.516,2.3,2.237,2.331,2.31c0.1,0.232-0.008,0.501-0.24,0.6
										C96.71,310.901,96.649,310.913,96.589,310.913z"/>
								</g>
							</g>
							<g>
								<g>
									<path style="fill:#FFFFFF;" d="M94.989,312.055c-0.177,0-0.346-0.104-0.42-0.277c-0.006-0.013-0.627-1.418-1.781-1.803
										c-1.106-0.369-2.293,0.594-2.305,0.604c-0.194,0.16-0.482,0.133-0.643-0.061c-0.161-0.194-0.134-0.481,0.059-0.642
										c0.064-0.053,1.585-1.299,3.179-0.768c1.547,0.516,2.3,2.237,2.331,2.309c0.099,0.232-0.008,0.501-0.24,0.6
										C95.111,312.043,95.049,312.055,94.989,312.055z"/>
								</g>
							</g>
							<g>
								<g>
									<path style="fill:#FFFFFF;" d="M93.166,313.077c-0.177,0-0.346-0.104-0.42-0.277c-0.006-0.013-0.626-1.418-1.781-1.803
										c-1.106-0.37-2.293,0.594-2.305,0.604c-0.195,0.16-0.482,0.133-0.643-0.061c-0.161-0.194-0.135-0.481,0.059-0.642
										c0.064-0.053,1.585-1.299,3.178-0.768c1.547,0.516,2.3,2.237,2.331,2.31c0.1,0.232-0.008,0.501-0.24,0.6
										C93.287,313.065,93.226,313.077,93.166,313.077z"/>
								</g>
							</g>
						</g>
					</g>
					<g>
						<path style="fill:#FCB38F;" d="M106.527,294.396l-1.735,9.938c0,0-3.151,2.548-6.822,0.853l1.33-10.733
							C99.3,294.453,103.984,292.962,106.527,294.396z"/>
					</g>
				</g>
				<g>
					<path style="fill:#001350;" d="M135.439,218.669c0,0-31.571,13.392-33.344,20.696c-1.772,7.305-4.85,58.105-4.85,58.105
						s4.729,2.667,9.958,1.63c0,0,3.162-17.013,4.638-21.578c1.477-4.565,4.824-21.06,5.366-27.138c0,0,27.528-7.29,31.509-14.081
						C157.464,221.386,135.439,218.669,135.439,218.669z"/>
					<path style="fill:#3B3E7D;" d="M96.773,293.519l-0.562,4.997c0,0,5.266,2.692,11.367,1.917l0.707-4.433
						C108.285,296,101.258,295.457,96.773,293.519z"/>
				</g>
			</g>
			<g>
				<g>
					<g>
						<path style="fill:#86A0C8;" d="M121.411,238.2l22.39-12.782c1.171-0.668,1.164-2.358-0.011-3.018l-26.308-14.76
							c-0.514-0.288-1.138-0.296-1.659-0.021L93.356,219.5c-1.197,0.633-1.239,2.333-0.074,3.024l26.384,15.661
							C120.202,238.504,120.869,238.509,121.411,238.2z"/>
						<path style="fill:#26246C;" d="M121.411,235.561l22.39-12.782c1.171-0.668,1.164-2.359-0.011-3.018l-26.308-14.76
							c-0.514-0.288-1.138-0.296-1.659-0.021l-22.466,11.881c-1.197,0.633-1.239,2.333-0.074,3.024l26.384,15.661
							C120.202,235.865,120.869,235.87,121.411,235.561z"/>
						<path style="fill:#3B3E7D;" d="M144.656,223.832v-2.477l-23.149,12.755v4.09l22.187-12.707
							C144.289,225.152,144.656,224.518,144.656,223.832z"/>
					</g>
					<path style="fill:#3B3E7D;" d="M121.507,208.158v28.562c0,1.49-1.229,2.546-2.558,2.533h-4.93v-2.471l-35.951-20.751
						c-0.782-0.459-1.267-1.292-1.267-2.198v-27.022h-2.322v-4.073h4.868c0.012,0,0.012,0,0.025,0c0.41,0,0.832,0.099,1.229,0.335
						l39.639,22.887C121.022,206.408,121.507,207.252,121.507,208.158z"/>
					<path style="fill:#586197;" d="M75.754,183.076l39.636,22.884c0.784,0.453,1.267,1.289,1.267,2.195v28.561
						c0,1.951-2.112,3.171-3.802,2.195L73.22,216.027c-0.784-0.453-1.267-1.29-1.267-2.195v-28.561
						C71.952,183.32,74.064,182.101,75.754,183.076z"/>
					<path style="fill:#7581BC;" d="M95.377,212.145c0.01,2.237-1.3,4.056-2.926,4.063s-2.952-1.8-2.962-4.036
						c-0.01-2.237,1.3-4.056,2.926-4.063C94.041,208.102,95.367,209.909,95.377,212.145z"/>
				</g>
			</g>
			<g>
				<g>
					<g>
						<path style="fill:#3C80FB;" d="M155.174,185.295c-3.019-0.429-6.417-1.67-9.401-2.32c0.071-0.366,0.142-0.76,0.211-1.177
							c0.025-0.145,0.048-0.295,0.074-0.447c0.028-0.191,0.058-0.384,0.086-0.582c1.746-11.741,2.595-38.203,2.595-38.203
							s8.989,0.145,10.234,10.077C159.802,159.269,156.637,177.892,155.174,185.295z"/>
					</g>
				</g>
				<path style="fill:#3C80FB;" d="M155.174,185.295c-2.981,9.04-23.508,30.51-23.508,30.51l-5.276-6.43
					c13.742-18.28,18.405-25.864,19.432-27.613c0.165-0.282,0.236-0.412,0.236-0.412l4.333,1.876L155.174,185.295z"/>
				<g>
					<path style="fill:#2E60E0;" d="M150.449,183.15c-0.018,0.028-0.038,0.053-0.059,0.076c-0.03,0.031-0.063,0.059-0.099,0.081
						c-0.165,0.104-0.384,0.112-0.562-0.003c-1.255-0.808-2.62-1.258-3.746-1.507c-0.056-0.013-0.109-0.025-0.163-0.036
						c0.165-0.282,0.236-0.412,0.236-0.412c0.028-0.191,0.058-0.384,0.086-0.582c1.233,0.264,2.74,0.757,4.148,1.662
						C150.533,182.589,150.607,182.909,150.449,183.15z"/>
				</g>
				<path style="fill:#FCB38F;" d="M126.388,209.375c0,0-4.56,0.519-4.882,2.234v2.923v6.823c0,0,6.409-0.526,10.16-5.549
					L126.388,209.375z"/>
			</g>
		</g>
	</g>
	<g>
		<path style="fill:#E5E5E5;" d="M273.341,436.931c-2.769,4.797-26.641-3.801-53.318-19.203
			c-26.677-15.402-46.059-31.777-43.289-36.573c2.769-4.797,26.641,3.801,53.318,19.203S276.111,432.135,273.341,436.931z"/>
		<g>
			<g>
				<g>
					<g>
						<path style="fill:#2E60E0;" d="M187.198,377.202c0.039,2.948,1.087,6.218,2.746,9.112c1.659,2.894,3.927,5.412,6.406,6.856
							l64.958,37.837c4.956,2.887,8.949,0.426,8.872-5.469c-0.016-1.25-0.216-2.564-0.565-3.875
							c-0.474-1.783-1.228-3.574-2.181-5.237c-1.232-2.149-2.799-4.09-4.54-5.539c-0.714-17.284-12.632-37.727-27.043-46.121
							c-9.428-5.492-17.639-4.495-22.263,1.534c-1.332-1.272-2.747-2.363-4.215-3.218c-0.454-0.265-0.901-0.498-1.339-0.705
							c-7.034-3.299-12.45,0.549-12.338,9.137c0,0.004,0,0.004,0,0.009C190.914,368.973,187.123,371.458,187.198,377.202z"/>
					</g>
					<path style="fill:#2E60E0;" d="M185.475,370.707l4.673-0.444l1.257,1.918c0,0-0.794,0.705-2.438,0.067
						C187.322,371.61,185.475,370.707,185.475,370.707z"/>
					<path style="fill:#2E60E0;" d="M202.685,361.216l-6.893,0.191l3.189,2.365C198.981,363.772,201.857,363.049,202.685,361.216z"
						/>
				</g>
				<path style="fill:#2E60E0;" d="M265.687,432.204l-6.467,0.16l2.252-1.96C261.473,430.404,265.499,431.279,265.687,432.204z"/>
			</g>
			<g>
				<path style="fill:#3C80FB;" d="M180.611,377.384c0.038,2.948,1.087,6.218,2.746,9.112c1.659,2.894,3.927,5.412,6.405,6.856
					l64.958,37.836c4.956,2.887,8.949,0.426,8.872-5.469c-0.016-1.25-0.216-2.564-0.565-3.875c-0.474-1.783-1.228-3.574-2.181-5.237
					c-1.232-2.149-2.799-4.091-4.54-5.539c-0.714-17.284-12.632-37.727-27.043-46.12c-9.428-5.492-17.639-4.495-22.263,1.534
					c-1.332-1.272-2.747-2.363-4.215-3.218c-0.454-0.265-0.901-0.498-1.34-0.705c-7.034-3.299-12.45,0.549-12.338,9.137
					c0,0.004,0,0.004,0,0.009C184.327,369.155,180.537,371.641,180.611,377.384z"/>
			</g>
			<path style="fill:#FFFFFF;" d="M211.879,379.764l4.938-3.044l0,0l3.929-2.422l0.468,0.813l2.359,4.116l1.226,2.142l5.097,8.889
				c1.118,1.953,1.145,4.075,0.062,4.747c-1.086,0.666-2.873-0.375-3.991-2.325l-2.232-3.894l0.213,16.345
				c0.024,1.853-1.22,2.62-2.778,1.712c-1.558-0.908-2.841-3.146-2.866-5l-0.213-16.341l-2.16,1.332
				c-0.543,0.331-1.26,0.239-1.984-0.182c-0.721-0.42-1.446-1.168-2.007-2.142C210.823,382.558,210.796,380.436,211.879,379.764z"/>
		</g>
	</g>
	<g>
		
			<ellipse transform="matrix(0.3521 -0.9359 0.9359 0.3521 -308.8992 392.8473)" style="fill:#E5E5E5;" cx="129.317" cy="419.552" rx="24.433" ry="53.854"/>
		<g>
			<polygon style="fill:#586197;" points="90.038,360.041 138.545,388.047 170.883,369.376 122.671,341.2 			"/>
			<g>
				<defs>
					<polygon id="SVGID_00000150781832965480177730000016309859265791402395_" points="162.476,369.354 138.545,383.171 
						98.483,360.041 99.357,326.11 120.705,318.555 163.589,341.095 					"/>
				</defs>
				<clipPath id="SVGID_00000093861403307348971490000000325773395987593620_">
					<use xlink:href="#SVGID_00000150781832965480177730000016309859265791402395_"  style="overflow:visible;"/>
				</clipPath>
				<polygon style="clip-path:url(#SVGID_00000093861403307348971490000000325773395987593620_);fill:#001350;" points="
					98.483,360.041 122.659,346.083 162.476,369.354 138.545,383.171 				"/>
				<g style="clip-path:url(#SVGID_00000093861403307348971490000000325773395987593620_);">
					<g>
						<path style="fill:#2E60E0;" d="M117.607,326.887v31.396c0,0.435,0.232,0.837,0.607,1.054l18.293,10.425l17.383,9.906
							c0.245,0.139,0.506,0.184,0.754,0.152c0.574-0.073,1.068-0.556,1.068-1.211v-31.136c0-0.435-0.232-0.838-0.61-1.055
							l-35.667-20.585C118.623,325.363,117.607,325.949,117.607,326.887z"/>
						<path style="fill:#579DFF;" d="M127.007,350.374c0.22,3.807,3.285,6.85,6.846,6.796s6.269-3.184,6.049-6.991
							c-0.22-3.807-3.285-6.85-6.846-6.796C129.495,343.437,126.787,346.567,127.007,350.374z"/>
						<g>
							<path style="fill:#18285D;" d="M117.607,349.935v8.348c0,0.435,0.232,0.837,0.607,1.054l18.293,10.425l-6.615-20.016
								l-2.971-8.575l-6.265,5.922L117.607,349.935z"/>
							<polygon style="fill:#FFFFFF;" points="120.656,347.092 121.949,349.455 125.332,348.741 126.685,351.067 129.892,349.745 
								126.922,341.17 							"/>
							<path style="fill:#3B3E7D;" d="M124.384,362.853l12.123,6.909l17.383,9.906c0.245,0.139,0.506,0.184,0.754,0.152
								l-8.302-23.969l-3.589-10.361l-7.571,7.157L124.384,362.853z"/>
							<polygon style="fill:#FFFFFF;" points="135.182,352.646 136.745,355.5 140.832,354.637 142.466,357.448 146.342,355.85 
								142.753,345.49 							"/>
						</g>
					</g>
				</g>
				<g style="clip-path:url(#SVGID_00000093861403307348971490000000325773395987593620_);">
					<g>
						<path style="fill:#3C80FB;" d="M103.556,334.227v31.396c0,0.435,0.232,0.837,0.607,1.054l18.293,10.425l17.383,9.906
							c0.245,0.139,0.506,0.184,0.754,0.152c0.574-0.073,1.068-0.556,1.068-1.211v-31.136c0-0.435-0.232-0.838-0.61-1.055
							l-35.667-20.585C104.571,332.703,103.556,333.289,103.556,334.227z"/>
						<path style="fill:#579DFF;" d="M112.955,357.714c0.22,3.807,3.285,6.849,6.846,6.796c3.561-0.054,6.269-3.184,6.049-6.991
							s-3.285-6.85-6.846-6.796C115.444,350.777,112.735,353.907,112.955,357.714z"/>
						<g>
							<path style="fill:#18285D;" d="M103.556,357.275v8.348c0,0.435,0.232,0.837,0.607,1.054l18.293,10.425l-6.615-20.016
								l-2.971-8.575l-6.265,5.922L103.556,357.275z"/>
							<polygon style="fill:#FFFFFF;" points="106.605,354.432 107.898,356.795 111.281,356.081 112.633,358.407 115.841,357.085 
								112.87,348.51 							"/>
							<path style="fill:#3B3E7D;" d="M110.333,370.193l12.123,6.909l17.383,9.906c0.245,0.139,0.506,0.184,0.754,0.152
								l-8.302-23.969l-3.589-10.361l-7.571,7.156L110.333,370.193z"/>
							<polygon style="fill:#FFFFFF;" points="121.131,359.986 122.693,362.841 126.781,361.977 128.415,364.788 132.29,363.19 
								128.701,352.83 							"/>
						</g>
					</g>
				</g>
			</g>
			<polygon style="fill:#3B3E7D;" points="90.038,360.041 90.038,416.052 138.545,444.058 138.545,388.047 			"/>
			<g>
				<path style="fill:#586197;" d="M96.408,390.33c-0.126,8.341,6.801,19.335,15.443,24.507c8.641,5.172,15.774,2.594,15.9-5.746
					c0.126-8.341-6.801-19.335-15.442-24.507C103.667,379.411,96.534,381.989,96.408,390.33z M105.117,401.179
					c-0.487-1.952-0.741-3.901-0.757-5.801l7.084,4.24l-0.08,5.3L105.117,401.179z M108.691,411.373
					c-3.968-3.249-7.316-7.711-9.281-12.382l4.773,2.857c0.63,2.183,1.521,4.352,2.651,6.451
					C107.405,409.359,108.028,410.39,108.691,411.373z M111.346,406.135l-0.107,7.093c-0.471-0.555-1.959-2.395-3.433-5.146
					c-0.944-1.763-1.71-3.589-2.279-5.43L111.346,406.135z M106.088,388.609c1.726-2.574,4.217-3.301,5.011-3.474
					c0.187,0.097,0.375,0.198,0.561,0.302l-0.098,6.449L106.088,388.609z M100.028,384.982c2.054-1.843,5.252-2.136,8.869-0.821
					c-0.72,0.299-1.398,0.692-2.019,1.171c-0.858,0.661-1.587,1.486-2.168,2.452L100.028,384.982z M104.387,394.166
					c0.101-1.767,0.494-3.329,1.168-4.649l5.989,3.585l-0.08,5.3L104.387,394.166z M97.715,390.173
					c0.156-1.781,0.686-3.262,1.577-4.404l4.925,2.948c-0.629,1.358-0.996,2.935-1.091,4.695L97.715,390.173z M103.1,394.624
					c0.013,1.886,0.25,3.826,0.705,5.77l-5.007-2.997c-0.739-2.134-1.119-4.159-1.129-6.024L103.1,394.624z M120.904,405.28
					l5.578,3.339c-0.066,1.819-0.5,3.358-1.29,4.576l-5.153-3.084C120.544,408.741,120.834,407.117,120.904,405.28z M112.822,392.64
					l0.098-6.449c0.134,0.085,0.266,0.172,0.399,0.26c0.537,0.767,1.838,2.716,3.128,5.338c0.664,1.349,1.238,2.708,1.707,4.042
					L112.822,392.64z M118.648,397.354c0.621,2.101,0.959,4.101,1.006,5.95l-6.93-4.148l0.08-5.3L118.648,397.354z M119.527,396.653
					c-0.542-1.638-1.233-3.313-2.055-4.98c-0.607-1.231-1.275-2.443-1.988-3.611c3.673,3.016,6.872,7.154,8.871,11.481
					L119.527,396.653z M119.643,404.526c-0.072,1.853-0.38,3.467-0.915,4.8l-6.103-3.653l0.08-5.3L119.643,404.526z
					 M120.915,404.059c-0.041-1.841-0.355-3.826-0.931-5.905l5.071,3.035c0.842,2.182,1.318,4.265,1.417,6.196L120.915,404.059z
					 M124.543,414.034c-2.081,2.261-5.652,2.651-9.679,1.073c0.698-0.177,1.356-0.455,1.962-0.828
					c1.172-0.721,2.112-1.794,2.796-3.19L124.543,414.034z M118.277,410.284c-1.806,3.318-4.814,3.609-5.776,3.613l0.106-7.007
					L118.277,410.284z"/>
			</g>
			<polygon style="fill:#26246C;" points="138.545,444.058 170.883,425.002 170.883,369.376 138.545,388.047 			"/>
		</g>
	</g>
	<g>
		
			<ellipse transform="matrix(0.866 -0.5 0.5 0.866 -34.6425 180.5836)" style="fill:#E5E5E5;" cx="319.652" cy="154.936" rx="59.207" ry="8.173"/>
		<g>
			<g>
				<path style="fill:#3C80FB;" d="M272.889,104.193v73.696c0,1.548,1.17,2.691,2.528,2.865c0.586,0.077,1.205-0.03,1.783-0.359
					l29.587-16.86l3.623-2.064l5.056-2.882l1.099-0.627l1.778-1.012l1.767-1.007l1.112-0.634l0.079-0.043l1.239-0.707l7.005-3.99
					l1.703-0.971l22.051-12.566l1.347-0.769l6.995-3.986c0.887-0.515,1.437-1.465,1.437-2.495v-74.31
					c0-2.22-2.403-3.608-4.327-2.498l-84.419,48.724C273.439,102.211,272.889,103.163,272.889,104.193z"/>
			</g>
			
				<ellipse transform="matrix(0.3101 -0.9507 0.9507 0.3101 105.0798 382.3991)" style="fill:#579DFF;" cx="316.006" cy="118.801" rx="16.435" ry="15.163"/>
			<g>
				<path style="fill:#18285D;" d="M276.321,157.817c0,0,36.11-3.685,48.016-21.611c0,0-3.573-6.247-9.511-10.771
					c-3.172-2.42-7.022-4.343-11.36-4.559c-5.36-0.266-11.131,6.532-15.968,14.369C281.088,145.621,276.321,157.817,276.321,157.817
					z"/>
				<path style="fill:#FFFFFF;" d="M287.497,135.246c2.081,1.107,1.329,5.776,6.117,4.137c6.179-2.116,4.141-9.484,9.077-8.4
					c4.935,1.082,7.26,3.507,9.119-1.717c0.826-2.315,1.983-3.373,3.016-3.83c-3.172-2.42-7.022-4.343-11.36-4.559
					C298.105,120.611,292.335,127.409,287.497,135.246z"/>
			</g>
			<g>
				<polygon style="fill:#0041C6;" points="266.123,102.484 266.123,121.792 269.462,123.72 269.172,104.258 				"/>
				<polygon style="fill:#2E60E0;" points="286.461,94.276 286.461,113.905 269.462,123.72 269.172,104.258 				"/>
				<g>
					<path style="fill:#FFFFFF;" d="M279.001,115.15L279.001,115.15c-0.673,0.343-1.225-0.018-1.235-0.806l-0.117-9.449
						c-0.01-0.788,0.527-1.705,1.2-2.048l0,0c0.673-0.343,1.226,0.018,1.235,0.806l0.117,9.449
						C280.211,113.89,279.674,114.807,279.001,115.15z"/>
					<path style="fill:#FFFFFF;" d="M284.173,106.322L284.173,106.322c0.01,0.788-0.527,1.705-1.2,2.048l-8.062,4.11
						c-0.673,0.343-1.226-0.018-1.235-0.806l0,0c-0.01-0.788,0.528-1.705,1.2-2.048l8.062-4.11
						C283.611,105.173,284.164,105.534,284.173,106.322z"/>
				</g>
				<polygon style="fill:#3C80FB;" points="266.123,102.484 283.412,92.502 286.461,94.276 269.172,104.258 				"/>
			</g>
		</g>
		<g>
			<path style="fill:#3B3E7D;" d="M272.889,146.133v31.756c0,1.548,1.17,2.691,2.528,2.865c0.586,0.077,1.205-0.03,1.783-0.359
				l29.587-16.86l3.623-2.064l5.056-2.882l1.099-0.627l1.778-1.012l1.767-1.007l1.112-0.634l0.079-0.043l1.239-0.707l7.005-3.99
				l1.703-0.971l22.051-12.566l1.347-0.769l6.995-3.986c0.887-0.515,1.437-1.465,1.437-2.495v-24.395c0,0-2.169-1.309-6.219-5.795
				c-4.643-5.141-11.753-9.645-20.896-5.315c-7.087,3.357-10.231,12.8-13.321,23.018c-4.374,14.466-8.64,30.487-23.831,33.004
				C286.679,152.311,278.999,148.745,272.889,146.133z"/>
			<path style="fill:#FFFFFF;" d="M322.642,117.295c2.775,0.981,6.559-3.799,9.438-7.57c3.617-4.74,7.609-1.123,12.726,0.999
				c5.115,2.12,6.237-1.997,8.509-8.008c0.805-2.13,2.148-2.951,3.544-3.125c-4.643-5.141-11.753-9.645-20.896-5.315
				C328.876,97.633,325.732,107.077,322.642,117.295z"/>
		</g>
	</g>
	<g>
		<ellipse style="fill:#E5E5E5;" cx="396.777" cy="441.246" rx="41.017" ry="10.646"/>
		<g>
			<g>
				<path style="fill:#3C80FB;" d="M449.281,249.437c-3.812,10.163-12.511,3.619-12.511,3.619s-1.347-0.846,0.313-8.623
					c0.328-1.535,0.389-3.583,0.277-5.883c-0.02-0.422-0.048-0.851-0.079-1.288c-0.668-9.253-3.703-21.572-3.703-21.572l6.478-0.951
					C440.055,214.739,453.093,239.271,449.281,249.437z"/>
				<g>
					<path style="fill:#2E60E0;" d="M440.874,241.256c-0.064,0.046-0.13,0.076-0.201,0.091c-0.193,0.041-0.399-0.031-0.526-0.201
						c-0.833-1.118-1.865-1.977-2.788-2.597c-0.02-0.422-0.048-0.851-0.079-1.288c1.139,0.684,2.569,1.751,3.698,3.266
						C441.151,240.758,441.105,241.083,440.874,241.256z"/>
				</g>
				<path style="fill:#3C80FB;" d="M421.411,218.568c0,0,9.787,16.465,21.772,24.481c0,0-3.599,6.493-6.413,10.006
					c0,0-12.438-7.431-16.101-14.801S421.411,218.568,421.411,218.568z"/>
				<g>
					<path style="fill:#FCB38F;" d="M441.111,206.916c-0.244,1.837-1.055,7.823-1.055,7.823s-4.902,1.568-6.808,0.856
						c0,0-3.86-3.106-4.486-5.395c-0.417-1.52,0.704-3.093,1.505-3.977c0.401-0.447,0.722-0.717,0.722-0.717
						s-3.034-7.876-2.254-10.107c0.778-2.231,4.341,7.52,4.341,7.52s0.328,0.297,0.668,0.158c0.341-0.14-1.223-6.89-0.3-8.552
						c0.923-1.662,2.483,6.57,2.801,8.285c0,0,0.836-0.735,1.644-0.336s0.905,0.917,0.905,0.917s0.673-0.549,1.499-0.069
						C441.118,203.803,441.357,205.081,441.111,206.916z"/>
					<path style="fill:#FD8471;" d="M432.084,209.493l-1.817-3.271c0.401-0.447,0.722-0.717,0.722-0.717L432.084,209.493z"/>
					<path style="fill:#FD8471;" d="M431.714,208.147c0,0-0.823,2.184-0.539,3.391c0,0,0.262-1.611,0.908-2.045L431.714,208.147z"/>
				</g>
			</g>
			<g>
				<g>
					<g>
						<path style="fill:#3C80FB;" d="M392.451,448.748c0,0-2.627,1.677-5.211,0.413l-1.083-0.576l-0.881-0.528
							c0,0-10.738-5.217-14.517-7.527c-4.032-2.465-5.579-6.643-0.647-8.356c4.931-1.713,12.503,0.955,15.136-0.134
							c0,0,7.932,0.576,7.54,4.814C392.955,441.37,393.272,443.447,392.451,448.748z"/>
						<g>
							<g>
								<path style="fill:#FFFFFF;" d="M375.962,435.107c0.166-0.077,0.279-0.247,0.273-0.441c0-0.015-0.027-1.598,0.887-2.458
									c0.876-0.824,2.403-0.436,2.419-0.432c0.252,0.066,0.509-0.084,0.576-0.335c0.066-0.251-0.082-0.508-0.333-0.576
									c-0.083-0.022-2.046-0.53-3.307,0.656c-1.225,1.152-1.185,3.089-1.183,3.17c0.007,0.26,0.224,0.465,0.484,0.458
									C375.844,435.148,375.906,435.133,375.962,435.107z"/>
							</g>
							<g>
								<path style="fill:#FFFFFF;" d="M377.515,435.431c0.166-0.077,0.279-0.247,0.273-0.441c0-0.015-0.027-1.598,0.887-2.458
									c0.875-0.824,2.404-0.436,2.419-0.432c0.251,0.066,0.509-0.084,0.576-0.335c0.066-0.251-0.082-0.508-0.333-0.576
									c-0.083-0.022-2.045-0.53-3.307,0.656c-1.225,1.152-1.185,3.089-1.183,3.17c0.007,0.26,0.224,0.465,0.484,0.458
									C377.397,435.473,377.459,435.457,377.515,435.431z"/>
							</g>
							<g>
								<path style="fill:#FFFFFF;" d="M379.249,435.727c0.166-0.077,0.279-0.247,0.273-0.441c0-0.015-0.027-1.598,0.887-2.458
									c0.875-0.824,2.403-0.436,2.419-0.432c0.252,0.066,0.509-0.084,0.576-0.335c0.066-0.251-0.082-0.508-0.333-0.576
									c-0.083-0.022-2.046-0.531-3.307,0.656c-1.225,1.152-1.185,3.088-1.183,3.17c0.007,0.26,0.224,0.465,0.484,0.458
									C379.13,435.768,379.193,435.753,379.249,435.727z"/>
							</g>
						</g>
					</g>
					<path style="fill:#FCB38F;" d="M391.798,423.495l-0.307,12.53c0,0-2.323,1.259-6.706-0.388l-1.872-11.677
						C382.913,423.96,388.691,422.075,391.798,423.495z"/>
				</g>
				<path style="fill:#3B3E7D;" d="M407.909,310.528l-20.827,0.463c0,0-6.869,46.428-7.542,57.379s2.849,58.66,2.849,58.66
					c5.386,2.892,10.436,0.266,10.436,0.266s1.024-29.419,2.086-35.294c1.062-5.875,1.234-17.51,0.416-20.061
					c0,0,13.843-36.933,16.159-44.552C413.801,319.769,407.909,310.528,407.909,310.528z"/>
				<g>
					<path style="fill:#001350;" d="M384.488,426.789c-0.269,0-0.491-0.213-0.5-0.483c-0.017-0.5-1.651-50.03-2.651-55.904
						c-1.02-5.996,5.311-39.285,5.581-40.699c0.052-0.271,0.317-0.448,0.585-0.397c0.271,0.052,0.449,0.314,0.397,0.585
						c-0.065,0.345-6.567,34.525-5.577,40.344c1.011,5.94,2.598,53.996,2.665,56.039c0.009,0.276-0.208,0.507-0.483,0.517
						C384.499,426.789,384.493,426.789,384.488,426.789z"/>
				</g>
				<path style="fill:#586197;" d="M393.283,423.979c0,0-6.872,1.042-12.165-0.053c-0.309,2.02,0.012,4.112,0.546,5.229
					c0,0,6.313,1.284,11.275-0.147C393.451,427.487,393.808,425.706,393.283,423.979z"/>
			</g>
			<g>
				<g>
					<g>
						<path style="fill:#3C80FB;" d="M430.892,446.678c0,0-2.596,2.019-5.435,0.944l-1.195-0.499l-0.978-0.469
							c0,0-11.122-5.963-14.793-8.854c-3.672-2.891-7.304-7.274-2.29-9.556c5.014-2.283,12.827,2.984,15.487,1.583
							c0,0,8.391-0.171,8.393,4.321C430.701,438.875,431.237,441.026,430.892,446.678z"/>
						<g>
							<g>
								<path style="fill:#FFFFFF;" d="M412.234,432.305c0.181-0.067,0.314-0.237,0.324-0.441c0.001-0.016,0.105-1.684,1.138-2.511
									c0.99-0.794,2.565-0.258,2.581-0.253c0.259,0.09,0.542-0.046,0.633-0.304c0.091-0.258-0.044-0.542-0.302-0.633
									c-0.085-0.03-2.108-0.728-3.534,0.415c-1.385,1.11-1.505,3.15-1.509,3.236c-0.014,0.274,0.197,0.508,0.471,0.522
									C412.106,432.338,412.173,432.328,412.234,432.305z"/>
							</g>
							<g>
								<path style="fill:#FFFFFF;" d="M413.84,432.776c0.181-0.067,0.314-0.237,0.324-0.441c0.001-0.016,0.105-1.684,1.138-2.511
									c0.99-0.794,2.565-0.258,2.581-0.253c0.259,0.09,0.542-0.046,0.633-0.304c0.091-0.258-0.044-0.542-0.302-0.633
									c-0.085-0.03-2.107-0.728-3.534,0.414c-1.385,1.11-1.505,3.15-1.509,3.236c-0.014,0.274,0.197,0.508,0.471,0.522
									C413.712,432.809,413.779,432.798,413.84,432.776z"/>
							</g>
							<g>
								<path style="fill:#FFFFFF;" d="M415.639,433.231c0.181-0.067,0.314-0.237,0.324-0.441c0.001-0.016,0.105-1.684,1.138-2.511
									c0.99-0.794,2.565-0.258,2.581-0.253c0.259,0.09,0.543-0.046,0.634-0.304c0.091-0.259-0.044-0.542-0.302-0.633
									c-0.085-0.03-2.108-0.729-3.534,0.414c-1.385,1.11-1.505,3.15-1.509,3.236c-0.014,0.274,0.197,0.508,0.471,0.522
									C415.511,433.264,415.578,433.254,415.639,433.231z"/>
							</g>
						</g>
					</g>
					<path style="fill:#FCB38F;" d="M427.736,420.206l0.904,13.196c0,0-2.318,1.55-7.085,0.248l-3.11-12.086
						C418.445,421.564,424.332,419.019,427.736,420.206z"/>
				</g>
				<path style="fill:#3B3E7D;" d="M407.488,312.384c0,0,2.135,42.223,2.51,53.796c0.375,11.573,9.086,60.372,9.086,60.372
					c5.945,2.506,10.536-1.189,10.536-1.189s-1.877-18.503-2.165-23.801c-0.288-5.298,1.184-22.486-1.294-30.362
					c0,0,2.69-38.542,3.248-40.594c0,0,0.062-3.718,0.25-9.059c0.134-3.822,0-8.18,0-8.18L407.488,312.384z"/>
				<g>
					<path style="fill:#001350;" d="M420.147,426.795c-0.244,0-0.458-0.18-0.494-0.429c-0.069-0.483-6.951-48.428-7.627-54.765
						c-0.677-6.351-1.026-40.293-1.041-41.735c-0.003-0.276,0.219-0.502,0.495-0.505c0.255,0.032,0.502,0.219,0.505,0.495
						c0.004,0.353,0.364,35.336,1.035,41.64c0.674,6.318,7.554,54.244,7.623,54.728c0.039,0.273-0.15,0.527-0.424,0.566
						C420.195,426.793,420.172,426.795,420.147,426.795z"/>
				</g>
				<path style="fill:#586197;" d="M429.897,422.309c0,0-6.538,1.918-11.826,1.502c-0.03,2.054,0.562,4.098,1.23,5.144
					c0,0,6.305,0.473,10.935-1.588C430.529,425.785,430.639,423.964,429.897,422.309z"/>
			</g>
			<path style="fill:#579DFF;" d="M430.514,317.075c-12.288,12.772-49.538,1.061-49.538,1.061s3.23-23.449,3.714-42.664
				c0.169-6.721-1.105-15.399-2.229-23.467c-0.068-0.476-0.133-0.947-0.198-1.418c-1.399-10.134-2.409-19.051,0.216-21.516
				c3.691-3.47,17.247-7.414,28.484-10.71c0,0,7.736-3.637,10.447,0.207c2.711,3.844,5.93,32.041,6.099,40.307
				C427.679,267.142,432.502,308.555,430.514,317.075z"/>
			<g>
				<path style="fill:#3C80FB;" d="M402.967,301.774c0.026,0,0.052-0.002,0.079-0.006c13.775-2.092,22.538-15.705,22.625-15.843
					c0.154-0.243,0.081-0.564-0.161-0.718c-0.243-0.154-0.564-0.081-0.718,0.161c-0.085,0.133-8.603,13.351-21.902,15.371
					c-0.284,0.043-0.479,0.308-0.436,0.593C402.492,301.59,402.714,301.774,402.967,301.774z"/>
			</g>
			<g>
				<path style="fill:#3C80FB;" d="M382.264,250.587c0.065,0.471,0.13,0.942,0.198,1.418c3.069-3.668,5.049-7.985,5.155-8.219
					c0.12-0.263,0.005-0.57-0.258-0.689c-0.263-0.12-0.57-0.003-0.689,0.257C386.647,243.406,384.925,247.162,382.264,250.587z"/>
			</g>
			<g>
				<path style="fill:#3C80FB;" d="M408.69,278.19c0.131,0,0.263-0.049,0.364-0.149c8.524-8.35,11.486-27.723,11.609-28.543
					c0.042-0.284-0.154-0.549-0.438-0.591c-0.285-0.042-0.549,0.154-0.591,0.438c-0.029,0.198-3.034,19.849-11.307,27.953
					c-0.205,0.201-0.209,0.53-0.008,0.736C408.42,278.138,408.555,278.19,408.69,278.19z"/>
			</g>
			<g>
				<path style="fill:#FCB38F;" d="M382.797,203.044c0,0-0.637,3.761-0.636,4.909c0.002,1.148,2.261,1.494,2.261,1.494
					S383.639,204.114,382.797,203.044z"/>
				<path style="fill:#FCB38F;" d="M407.302,220.047c-0.145,0.938-2.069,2.038-4.923,3.088c-1.408,0.519-4.163,0.953-6.844,0.519
					l-0.305-2.048l-0.081-0.508l-0.14-0.902l-0.516-3.327l-0.046-0.295l-0.035-0.234c0,0,7.939-5.611,11.19-4.376
					c0.127,0.043,0.244,0.099,0.353,0.165C406.182,214.632,406.855,217.913,407.302,220.047z"/>
				<path style="fill:#FD8471;" d="M399.775,215.918c0,0-2.041,2.473-4.765,4.277l-0.516-3.327l-0.046-0.295L399.775,215.918z"/>
				<path style="fill:#FCB38F;" d="M382.511,199.056c0.057,1.575,0.161,3.142,0.335,4.55c0.091,0.782,0.208,1.515,0.348,2.173
					c0.14,0.658,0.338,1.39,0.59,2.16c0,0,0.003,0.005,0.005,0.013c0.023,0.135,0.239,1.234,0.608,2.653
					c0.008,0.034,0.018,0.068,0.026,0.101c0.32,1.224,0.746,2.666,1.26,3.914c0.034,0.083,0.068,0.164,0.101,0.244
					c0.491,1.146,1.052,2.097,1.666,2.523c3.144,2.191,13.773-1.349,13.773-1.349l1.045-0.424c1.224-0.317,1.393-0.855,1.996-1.453
					c0.743-0.671,1.401-1.349,1.98-2.048c1.05-1.26,1.868-2.588,2.549-4.046c0.263-0.561,0.364-1.188,0.525-1.785
					c0.029-0.104,0.057-0.213,0.08-0.317c0.016-0.06,0.034-0.117,0.049-0.177c0.442-1.749,0.756-3.506,0.99-5.177
					c0.288-2.087,0.442-4.025,0.515-5.618c0.143-2.929-1.279-5.709-3.727-7.323c-6.632-4.368-14.005-3.404-18.916-1.882
					c-3.412,1.053-5.759,4.176-5.826,7.742C382.451,195.221,382.451,197.149,382.511,199.056z"/>
				<path style="fill:#18285D;" d="M384.116,209.446c0,0-0.4,0.671,0.281,1.159l3.498-0.639c0,0,0.236,3.925-2.212,4.654
					c0,0-0.807,4.414,1.153,5.781c1.959,1.366,6.153-1.207,6.121-4.13c-0.032-2.923,0.687-11.247,0.359-12.914l-2.084-0.024
					c0,0-0.022,4.043-1.261,4.647C388.732,208.583,386.457,207.546,384.116,209.446z"/>
				<path style="fill:#18285D;" d="M383.513,202.165c0.083,0.802,0.421,1.424,0.754,1.389c0.333-0.035,0.535-0.713,0.452-1.515
					c-0.083-0.802-0.421-1.424-0.754-1.389C383.632,200.685,383.43,201.363,383.513,202.165z"/>
				<g>
					<path style="fill:#18285D;" d="M382.43,196.944c1.283-0.18,2.83-0.197,4.221,0.335c0.13,0.05,0.205,0.189,0.18,0.326
						l-0.165,0.924c-0.028,0.159-0.177,0.265-0.336,0.239c-0.598-0.1-2.081-0.289-3.831-0.077c-0.174,0.021-0.331-0.11-0.334-0.285
						c-0.007-0.395-0.005-0.79,0.013-1.184C382.185,197.081,382.291,196.964,382.43,196.944z"/>
				</g>
				<path style="fill:#18285D;" d="M410.964,204.008c1.111-5.236,0-12.178,0-12.178c-0.668-3.572-3.275-6.585-3.275-6.585
					c-1.246-1.265-3.529-2.2-5.928-2.879c-1.529-0.279-2.784-0.223-4.155,0c-1.994,0.324-4.172,0.466-6.099,1.076
					c-3.621,1.146-7.109,2.245-8.556,7.285c1.565,2.071,1.404,4.663,3.91,4.67c3.222,0.01,3.085,2.78,3.218,5.593
					c0.133,2.813,3.398,3.733,3.311,1.885c0,0-0.269-3.809,1.823-4.813c1.552-0.745,4.553-0.886,4.997,3.836
					c0.421,4.474-2.99,5.064-2.99,5.064s0.651,0.274,3.637,0.274c1.831,0,1.872,6.041,4.824,6.024
					C408.633,213.247,410.253,207.913,410.964,204.008z"/>
				<path style="fill:#18285D;" d="M382.951,190.73c0,0-4.32-3.399-3.304-10.213c1.017-6.814,6.331-1.352,9.996-1.393
					c3.314-0.037,15.164-0.909,16.858,4.981C407.532,187.688,391.464,193.271,382.951,190.73z"/>
				<g>
					<path style="fill:#FD8471;" d="M395.778,205.005c0.123-0.065,0.194-0.206,0.164-0.349c-0.449-2.117,1.071-3.867,1.086-3.885
						c0.116-0.132,0.104-0.333-0.027-0.45c-0.132-0.117-0.333-0.105-0.45,0.026c-0.072,0.081-1.75,2.003-1.233,4.441
						c0.037,0.172,0.206,0.282,0.378,0.246C395.725,205.029,395.753,205.019,395.778,205.005z"/>
				</g>
				<g>
					<path style="fill:#FD8471;" d="M397.221,203.064c0.052-0.027,0.098-0.07,0.129-0.125c0.087-0.153,0.033-0.348-0.12-0.435
						c-0.025-0.014-0.634-0.353-1.508-0.299c-0.175,0.01-0.309,0.162-0.298,0.338c0.011,0.176,0.162,0.309,0.338,0.298
						c0.676-0.042,1.149,0.215,1.154,0.217C397.014,203.115,397.128,203.113,397.221,203.064z"/>
				</g>
				<path style="fill:#FFFFFF;" d="M384.397,210.605c0.008,0.034,0.018,0.068,0.026,0.101c0.32,1.224,0.746,2.666,1.26,3.914
					c1.827-1.058,2.183-3.035,2.212-4.504v-0.151l-0.237,0.044L384.397,210.605z"/>
			</g>
			<g>
				<path style="fill:#579DFF;" d="M382.48,229.072c0,0-21.559,23.753-27.507,24.062l3.407,10.16c0,0,18.506-4.821,24.679-13.796
					C389.059,240.773,382.48,229.072,382.48,229.072z"/>
				<path style="fill:#579DFF;" d="M339.954,234.874c0,0,5.137,22.95,10.566,26.971c5.428,4.021,9.51,0.531,9.51,0.531
					s0.926-5.137-2.417-9.905c-0.198-0.281-0.408-0.562-0.64-0.84c-0.356-0.437-0.757-0.869-1.199-1.29
					c-5.488-5.218-8.36-15.581-8.36-15.581C345.221,235.251,342.318,235.618,339.954,234.874z"/>
				<g>
					<g>
						<polygon style="fill:#18285D;" points="347.517,206.112 346.63,206.89 346.523,206.984 346.081,205.742 346.083,205.743 
							346.084,205.743 						"/>
						<path style="fill:#001350;" d="M346.441,206.133l5.016,20.124c0.048,0.192-0.011,0.396-0.154,0.533l-7.845,7.529
							c-0.307,0.295-0.818,0.147-0.92-0.265l-4.955-19.88c-0.053-0.212-0.018-0.433,0.092-0.615
							c0.036-0.059,0.079-0.114,0.129-0.163l7.713-7.525c0.161-0.157,0.38-0.191,0.566-0.128c0,0,0.001,0,0.001,0
							C346.251,205.801,346.392,205.936,346.441,206.133z"/>
						<polygon style="fill:#18285D;" points="343.073,234.473 344.596,234.513 344.268,233.2 						"/>
						<path style="fill:#26246C;" d="M347.517,206.112l-0.887,0.779l0.146,0.587l-6.915,6.681l-2.186-0.6
							c0.036-0.059,0.079-0.114,0.129-0.163l7.713-7.525c0.161-0.157,0.38-0.191,0.566-0.128c0,0,0.001,0,0.001,0L347.517,206.112z"
							/>
					</g>
					<path style="fill:#3B3E7D;" d="M348.042,206.641l4.917,19.726c0.063,0.254-0.014,0.523-0.203,0.704l-7.551,7.246
						c-0.405,0.389-1.079,0.194-1.214-0.35l-4.893-19.629c-0.063-0.252,0.013-0.518,0.199-0.699l7.526-7.343
						C347.227,205.902,347.905,206.094,348.042,206.641z"/>
					<g>
						<path style="fill:#FFFFFF;" d="M347.277,208.246l4.474,17.951c0.034,0.135-0.008,0.277-0.108,0.374l-6.241,5.989
							c-0.079,0.075-0.176,0.11-0.272,0.108c-0.166-0.002-0.327-0.111-0.373-0.294l-4.455-17.872
							c-0.033-0.134,0.007-0.275,0.105-0.372l3.291-3.211l2.93-2.858c0.019-0.019,0.04-0.035,0.061-0.049
							C346.907,207.873,347.211,207.982,347.277,208.246z"/>
					</g>
					<path style="fill:#3B3E7D;" d="M341.839,212.719l0.241,0.967c0.035,0.141,0.209,0.19,0.313,0.089l3.266-3.184
						c0.048-0.047,0.067-0.115,0.051-0.18l-0.293-1.174L341.839,212.719z"/>
				</g>
				<path style="fill:#FCB38F;" d="M347.414,234.76c0,0,1.755-3.198,1.577-5.411c-0.178-2.213,0.142-6.362-1.285-6.595
					c-1.427-0.233-0.553,3.275-1.911,4.664c-1.357,1.388-5.596-2.121-5.926-4.07c-0.273-1.613-1.046-4.196-1.046-4.196
					s-3.828,2.095-3.733,6.776c0.095,4.681,5.332,9.647,5.332,9.647S345.528,236.452,347.414,234.76z"/>
				<g>
					<path style="fill:#3C80FB;" d="M354.981,254.817c0.096,0.073,0.206,0.107,0.317,0.107c0.156,0,0.31-0.07,0.414-0.203
						c0.622-0.814,1.275-1.571,1.901-2.25c-0.198-0.281-0.408-0.562-0.64-0.84c-0.687,0.734-1.405,1.561-2.089,2.458
						C354.71,254.317,354.754,254.643,354.981,254.817z"/>
				</g>
			</g>
		</g>
	</g>
	<g>
		<g>
			<g>
				<g>
					<polygon style="fill:#2E60E0;" points="82.058,169.651 85.603,177.409 85.603,171.698 					"/>
					<polygon style="fill:#0041C6;" points="85.6,177.409 87.358,176.394 87.358,172.711 85.603,171.698 					"/>
				</g>
				<polygon style="fill:#0041C6;" points="102.076,150.307 102.076,176.1 97.616,178.675 98.003,152.676 				"/>
				<polygon style="fill:#2E60E0;" points="74.907,139.342 74.907,165.564 97.616,178.675 98.003,152.676 				"/>
				<polygon style="fill:#3C80FB;" points="102.076,150.307 78.979,136.972 74.907,139.342 98.003,152.676 				"/>
			</g>
			<g>
				<g>
					<path style="fill:#FFFFFF;" d="M78.939,154.509c-0.061,4.001,3.262,9.273,7.407,11.754c4.145,2.481,7.566,1.244,7.626-2.756
						c0.061-4.001-3.262-9.274-7.407-11.754C82.42,149.272,78.999,150.508,78.939,154.509z M83.116,159.713
						c-0.234-0.936-0.356-1.871-0.363-2.782l3.398,2.034l-0.039,2.542L83.116,159.713z M84.83,164.602
						c-1.903-1.558-3.509-3.699-4.451-5.939l2.289,1.37c0.302,1.047,0.73,2.088,1.271,3.094
						C84.213,163.636,84.512,164.13,84.83,164.602z M86.103,162.09l-0.052,3.402c-0.226-0.266-0.94-1.149-1.647-2.468
						c-0.453-0.846-0.82-1.721-1.093-2.605L86.103,162.09z M83.581,153.684c0.828-1.234,2.023-1.583,2.403-1.666
						c0.09,0.047,0.18,0.095,0.269,0.145l-0.047,3.093L83.581,153.684z M80.675,151.944c0.985-0.884,2.519-1.024,4.254-0.394
						c-0.345,0.143-0.67,0.332-0.968,0.562c-0.411,0.317-0.761,0.713-1.04,1.176L80.675,151.944z M82.765,156.349
						c0.049-0.847,0.237-1.597,0.56-2.23l2.872,1.719l-0.039,2.542L82.765,156.349z M79.565,154.434
						c0.075-0.854,0.329-1.564,0.756-2.112l2.363,1.414c-0.302,0.651-0.478,1.408-0.524,2.252L79.565,154.434z M82.148,156.568
						c0.006,0.905,0.12,1.835,0.338,2.767l-2.401-1.437c-0.355-1.023-0.537-1.995-0.542-2.889L82.148,156.568z M90.687,161.68
						l2.676,1.601c-0.032,0.872-0.24,1.61-0.619,2.195l-2.471-1.479C90.515,163.34,90.654,162.561,90.687,161.68z M86.811,155.617
						l0.047-3.093c0.064,0.041,0.128,0.083,0.191,0.125c0.258,0.368,0.882,1.303,1.5,2.56c0.319,0.647,0.594,1.299,0.819,1.939
						L86.811,155.617z M89.605,157.878c0.298,1.008,0.46,1.967,0.482,2.854l-3.324-1.989l0.039-2.542L89.605,157.878z
						 M90.027,157.542c-0.26-0.786-0.591-1.589-0.986-2.389c-0.291-0.59-0.611-1.172-0.953-1.732
						c1.761,1.447,3.296,3.431,4.255,5.507L90.027,157.542z M90.083,161.318c-0.035,0.889-0.182,1.663-0.439,2.302l-2.927-1.752
						l0.038-2.542L90.083,161.318z M90.693,161.094c-0.02-0.883-0.17-1.835-0.447-2.832l2.432,1.456
						c0.404,1.046,0.632,2.046,0.68,2.972L90.693,161.094z M92.433,165.878c-0.998,1.084-2.711,1.272-4.642,0.515
						c0.335-0.085,0.651-0.218,0.941-0.397c0.562-0.346,1.013-0.861,1.341-1.53L92.433,165.878z M89.428,164.08
						c-0.866,1.591-2.309,1.731-2.771,1.733l0.051-3.361L89.428,164.08z"/>
				</g>
			</g>
		</g>
		<g>
			<g>
				<polygon style="fill:#2E60E0;" points="342.603,195.043 339.057,202.801 339.057,197.09 				"/>
				<polygon style="fill:#0041C6;" points="339.06,202.801 337.302,201.786 337.302,198.103 339.057,197.09 				"/>
			</g>
			<polygon style="fill:#0041C6;" points="321.504,176.295 321.504,202.088 325.964,204.663 325.577,178.664 			"/>
			<polygon style="fill:#2E60E0;" points="348.674,165.329 348.674,191.552 325.964,204.663 325.577,178.664 			"/>
			<g>
				<path style="fill:#FFFFFF;" d="M343.113,179.737c0.016,1.112-0.316,2.439-1.002,3.717l-4.68,8.716l-4.849-2.807
					c-0.711-0.411-1.075-1.307-1.091-2.419c-0.016-1.112,0.316-2.439,1-3.714c1.279-2.381,3.266-3.326,4.786-1.585
					c1.443-3.579,3.421-5.093,4.746-4.326C342.732,177.73,343.097,178.625,343.113,179.737z"/>
			</g>
			<polygon style="fill:#3C80FB;" points="321.504,176.295 344.601,162.96 348.674,165.329 325.577,178.664 			"/>
		</g>
	</g>
</g>
<g id="DESIGNED_BY_FREEPIK">
	<g>
		<g id="XMLID_1_">
			<g id="XMLID_20_">
				<path id="XMLID_28_" style="fill:#112129;" d="M260.104,465.465c-0.432,0.443-0.803,0.931-1.108,1.453l-0.465-0.241
					c-0.067-0.298-0.349-0.503-0.659-0.466c-0.331,0.039-0.568,0.339-0.529,0.67c0.039,0.331,0.339,0.568,0.67,0.529
					c0.065-0.008,0.127-0.026,0.183-0.052l0.452,0.234c-0.251,0.554-0.433,1.139-0.539,1.744l0.747,0.132
					c0.23-1.306,0.85-2.507,1.792-3.473L260.104,465.465z"/>
				<path id="XMLID_27_" style="fill:#112129;" d="M265.592,463.163c-0.171,0-0.341,0.006-0.51,0.017l-0.074-0.626
					c0.188-0.149,0.296-0.389,0.266-0.645c-0.046-0.393-0.402-0.674-0.795-0.628c-0.393,0.046-0.674,0.402-0.628,0.795
					c0.03,0.254,0.189,0.461,0.405,0.564l0.073,0.624c-0.714,0.116-1.403,0.332-2.06,0.646l0.327,0.684
					c0.934-0.447,1.942-0.673,2.995-0.673c0.496,0,0.993,0.053,1.475,0.158l0.161-0.741
					C266.692,463.222,266.142,463.163,265.592,463.163z"/>
				<path id="XMLID_26_" style="fill:#112129;" d="M272.194,465.711c0.331-0.04,0.566-0.341,0.526-0.672
					c-0.04-0.331-0.341-0.566-0.672-0.526c-0.309,0.038-0.535,0.304-0.53,0.609l-0.416,0.363c-0.418-0.43-0.89-0.813-1.408-1.139
					l-0.404,0.641c1.134,0.715,2.021,1.726,2.563,2.925l0.691-0.313c-0.251-0.554-0.568-1.072-0.942-1.545l0.402-0.351
					C272.065,465.716,272.129,465.719,272.194,465.711z"/>
				<path id="XMLID_25_" style="fill:#112129;" d="M265.044,473.372c-0.386,0.023-0.775,0.035-1.157,0.035
					c-0.88,0-1.733-0.061-2.478-0.179c-0.39-0.062-0.846-0.155-1.27-0.292c1.046,1.861,3.069,3.125,5.388,3.125
					c2.855,0,5.262-1.916,5.95-4.504c-0.682,0.449-1.505,0.825-2.459,1.123C267.839,473.047,266.464,473.286,265.044,473.372z"/>
				<path id="XMLID_21_" style="fill:#112129;" d="M265.592,464.68c-3.352,0-6.08,2.666-6.08,5.943c0,0.426,0.046,0.849,0.137,1.261
					c0.673,0.483,2.706,0.89,5.348,0.731c2.879-0.173,5.297-0.957,6.672-2.159c-0.005-0.195-0.021-0.39-0.045-0.582
					C271.244,466.913,268.65,464.68,265.592,464.68z M263.432,471.194c-1.02,0-1.85-0.83-1.85-1.85c0-1.02,0.83-1.85,1.85-1.85
					c1.02,0,1.85,0.83,1.85,1.85C265.282,470.365,264.452,471.194,263.432,471.194z M268.17,470.286c-0.75,0-1.36-0.61-1.36-1.36
					s0.61-1.361,1.36-1.361c0.75,0,1.361,0.61,1.361,1.361S268.92,470.286,268.17,470.286z"/>
			</g>
			<path id="XMLID_18_" style="fill:#112129;" d="M281.595,466.547c-0.295-0.116-0.805-0.309-1.382-0.237
				c-0.551,0.069-0.844,0.341-0.844,1.007v0.866h2.228v1.717h-2.228v5.455h-1.932v-5.455h-1.34v-1.717h1.34v-0.888
				c0-1.68,0.896-2.783,2.568-2.783c0.643,0,1.157,0.122,1.59,0.308L281.595,466.547z"/>
			<path id="XMLID_16_" style="fill:#112129;" d="M286.298,469.879c-0.177-0.03-0.358-0.046-0.526-0.046
				c-0.896,0-1.51,0.548-1.51,1.614v3.908h-1.932v-7.172h1.873v0.785c0.451-0.673,1.14-0.977,2.021-0.977
				c0.414,0,0.848,0.128,1.094,0.337L286.298,469.879z"/>
			<path id="XMLID_13_" style="fill:#112129;" d="M293.965,471.757c0,0.222-0.015,0.489-0.037,0.651h-5.085
				c0.207,1.036,0.933,1.488,1.843,1.488c0.622,0,1.295-0.252,1.813-0.688l1.132,1.243c-0.814,0.748-1.85,1.088-3.057,1.088
				c-2.198,0-3.723-1.495-3.723-3.753c0-2.258,1.48-3.797,3.627-3.797C292.544,467.99,293.958,469.522,293.965,471.757z
				 M288.851,471.091h3.175c-0.177-0.918-0.733-1.436-1.562-1.436C289.554,469.655,289.021,470.203,288.851,471.091z"/>
			<path id="XMLID_10_" style="fill:#112129;" d="M301.618,471.757c0,0.222-0.015,0.489-0.037,0.651h-5.085
				c0.207,1.036,0.933,1.488,1.843,1.488c0.622,0,1.295-0.252,1.813-0.688l1.132,1.243c-0.814,0.748-1.85,1.088-3.057,1.088
				c-2.198,0-3.723-1.495-3.723-3.753c0-2.258,1.48-3.797,3.627-3.797C300.197,467.99,301.611,469.522,301.618,471.757z
				 M296.504,471.091h3.175c-0.178-0.918-0.733-1.436-1.562-1.436C297.207,469.655,296.674,470.203,296.504,471.091z"/>
			<path id="XMLID_7_" style="fill:#112129;" d="M309.964,471.764c0,2.154-1.495,3.775-3.471,3.775
				c-0.962,0-1.643-0.378-2.109-0.933v3.708h-1.924v-10.133h1.887v0.792c0.466-0.585,1.155-0.984,2.139-0.984
				C308.469,467.99,309.964,469.61,309.964,471.764z M304.287,471.764c0,1.132,0.747,1.976,1.843,1.976
				c1.14,0,1.85-0.881,1.85-1.976c0-1.095-0.71-1.976-1.85-1.976C305.035,469.788,304.287,470.632,304.287,471.764z"/>
			<path id="XMLID_4_" style="fill:#112129;" d="M313.068,465.836c0,0.696-0.54,1.229-1.236,1.229c-0.696,0-1.229-0.533-1.229-1.229
				c0-0.696,0.533-1.243,1.229-1.243C312.527,464.592,313.068,465.14,313.068,465.836z M312.809,475.354h-1.932v-7.172h1.932
				V475.354z"/>
			<path id="XMLID_2_" style="fill:#112129;" d="M316.032,470.736l2.701-2.554h2.368l-3.479,3.375l3.501,3.797h-2.376l-2.716-2.901
				v2.901H314.1v-10.658h1.932V470.736z"/>
		</g>
		<g>
			<path style="fill:#112129;" d="M184.412,475.289v-1.055c-0.527,0.718-1.391,1.23-2.387,1.23c-1.846,0-3.149-1.406-3.149-3.706
				c0-2.256,1.289-3.721,3.149-3.721c0.952,0,1.816,0.469,2.387,1.245v-3.765h1.099v9.77H184.412z M184.412,473.37v-3.208
				c-0.395-0.615-1.245-1.143-2.124-1.143c-1.421,0-2.27,1.172-2.27,2.739c0,1.567,0.85,2.724,2.27,2.724
				C183.168,474.483,184.017,473.986,184.412,473.37z"/>
			<path style="fill:#112129;" d="M186.932,471.744c0-2.051,1.465-3.706,3.486-3.706c2.139,0,3.398,1.67,3.398,3.794v0.279h-5.727
				c0.088,1.333,1.025,2.446,2.549,2.446c0.805,0,1.626-0.322,2.182-0.894l0.527,0.718c-0.703,0.703-1.655,1.084-2.812,1.084
				C188.44,475.465,186.932,473.956,186.932,471.744z M190.403,468.947c-1.509,0-2.256,1.274-2.314,2.358h4.643
				C192.718,470.25,192.015,468.947,190.403,468.947z"/>
			<path style="fill:#112129;" d="M194.607,474.351l0.571-0.791c0.469,0.542,1.362,1.011,2.329,1.011c1.084,0,1.67-0.513,1.67-1.216
				c0-1.714-4.38-0.659-4.38-3.281c0-1.098,0.952-2.036,2.636-2.036c1.201,0,2.051,0.454,2.622,1.026l-0.513,0.762
				c-0.424-0.513-1.201-0.894-2.109-0.894c-0.967,0-1.567,0.483-1.567,1.113c0,1.552,4.38,0.527,4.38,3.281
				c0,1.187-0.952,2.138-2.783,2.138C196.306,475.465,195.325,475.113,194.607,474.351z"/>
			<path style="fill:#112129;" d="M201.477,466.471c0-0.41,0.337-0.747,0.732-0.747c0.41,0,0.747,0.337,0.747,0.747
				c0,0.41-0.337,0.732-0.747,0.732C201.814,467.203,201.477,466.881,201.477,466.471z M201.667,475.289v-7.075h1.099v7.075H201.667
				z"/>
			<path style="fill:#112129;" d="M204.582,477.105l0.556-0.82c0.586,0.703,1.289,0.967,2.3,0.967c1.172,0,2.27-0.571,2.27-2.124
				v-1.011c-0.513,0.718-1.377,1.26-2.373,1.26c-1.845,0-3.149-1.377-3.149-3.662c0-2.27,1.289-3.677,3.149-3.677
				c0.952,0,1.802,0.469,2.373,1.245v-1.069h1.098v6.87c0,2.344-1.641,3.076-3.369,3.076
				C206.237,478.16,205.417,477.926,204.582,477.105z M209.709,473.253v-3.091c-0.381-0.615-1.23-1.143-2.109-1.143
				c-1.421,0-2.27,1.128-2.27,2.695c0,1.553,0.849,2.695,2.27,2.695C208.478,474.41,209.328,473.868,209.709,473.253z"/>
			<path style="fill:#112129;" d="M217.413,475.289v-4.629c0-1.245-0.63-1.641-1.582-1.641c-0.865,0-1.685,0.527-2.095,1.099v5.17
				h-1.099v-7.075h1.099v1.025c0.498-0.586,1.465-1.201,2.519-1.201c1.48,0,2.256,0.747,2.256,2.285v4.966H217.413z"/>
			<path style="fill:#112129;" d="M219.932,471.744c0-2.051,1.465-3.706,3.486-3.706c2.139,0,3.398,1.67,3.398,3.794v0.279h-5.727
				c0.088,1.333,1.025,2.446,2.549,2.446c0.806,0,1.626-0.322,2.183-0.894l0.527,0.718c-0.703,0.703-1.655,1.084-2.812,1.084
				C221.441,475.465,219.932,473.956,219.932,471.744z M223.404,468.947c-1.509,0-2.256,1.274-2.314,2.358h4.643
				C225.718,470.25,225.015,468.947,223.404,468.947z"/>
			<path style="fill:#112129;" d="M233.35,475.289v-1.055c-0.527,0.718-1.392,1.23-2.388,1.23c-1.846,0-3.149-1.406-3.149-3.706
				c0-2.256,1.289-3.721,3.149-3.721c0.952,0,1.817,0.469,2.388,1.245v-3.765h1.098v9.77H233.35z M233.35,473.37v-3.208
				c-0.396-0.615-1.245-1.143-2.124-1.143c-1.421,0-2.27,1.172-2.27,2.739c0,1.567,0.849,2.724,2.27,2.724
				C232.105,474.483,232.954,473.986,233.35,473.37z"/>
			<path style="fill:#112129;" d="M239.692,475.289v-9.77h1.098v3.765c0.572-0.776,1.421-1.245,2.388-1.245
				c1.845,0,3.149,1.465,3.149,3.721c0,2.299-1.304,3.706-3.149,3.706c-0.996,0-1.86-0.513-2.388-1.23v1.055H239.692z
				 M242.9,474.483c1.436,0,2.285-1.157,2.285-2.724c0-1.568-0.85-2.739-2.285-2.739c-0.864,0-1.728,0.527-2.109,1.143v3.208
				C241.171,473.986,242.036,474.483,242.9,474.483z"/>
			<path style="fill:#112129;" d="M247.528,477.061c0.161,0.073,0.425,0.117,0.601,0.117c0.483,0,0.805-0.161,1.055-0.747
				l0.469-1.069l-2.959-7.148h1.187l2.358,5.8l2.344-5.8h1.201l-3.545,8.51c-0.425,1.025-1.143,1.421-2.08,1.435
				c-0.234,0-0.601-0.044-0.806-0.103L247.528,477.061z"/>
		</g>
	</g>
</g>
</svg>
