<svg width="48" height="48" viewBox="0 0 48 48" fill="none" xmlns="http://www.w3.org/2000/svg">
<path d="M27 3V13.5C27 14.6935 27.4741 15.8381 28.318 16.682C29.1619 17.5259 30.3065 18 31.5 18H42V40.5C42 41.6935 41.5259 42.8381 40.682 43.682C39.8381 44.5259 38.6935 45 37.5 45H25.989C29.1818 42.7606 31.4782 39.4628 32.4709 35.6914C33.4636 31.9201 33.0883 27.919 31.4118 24.3979C29.7352 20.8769 26.8657 18.0635 23.3122 16.4568C19.7587 14.8501 15.751 14.554 12 15.621V7.5C12 6.30653 12.4741 5.16193 13.318 4.31802C14.1619 3.47411 15.3065 3 16.5 3H27ZM30 3.75V13.5C30 13.8978 30.158 14.2794 30.4393 14.5607C30.7206 14.842 31.1022 15 31.5 15H41.25L30 3.75ZM30 31.5C30 35.0804 28.5777 38.5142 26.0459 41.0459C23.5142 43.5777 20.0804 45 16.5 45C12.9196 45 9.4858 43.5777 6.95406 41.0459C4.42232 38.5142 3 35.0804 3 31.5C3 27.9196 4.42232 24.4858 6.95406 21.9541C9.4858 19.4223 12.9196 18 16.5 18C20.0804 18 23.5142 19.4223 26.0459 21.9541C28.5777 24.4858 30 27.9196 30 31.5ZM23.562 25.938C23.4227 25.7983 23.2571 25.6875 23.0749 25.6119C22.8927 25.5362 22.6973 25.4973 22.5 25.4973C22.3027 25.4973 22.1073 25.5362 21.9251 25.6119C21.7429 25.6875 21.5773 25.7983 21.438 25.938L13.5 33.879L11.562 31.938C11.4225 31.7985 11.257 31.6879 11.0747 31.6124C10.8925 31.537 10.6972 31.4981 10.5 31.4981C10.3028 31.4981 10.1075 31.537 9.92525 31.6124C9.74303 31.6879 9.57746 31.7985 9.438 31.938C9.29854 32.0775 9.18791 32.243 9.11243 32.4252C9.03695 32.6075 8.99811 32.8028 8.99811 33C8.99811 33.1972 9.03695 33.3925 9.11243 33.5748C9.18791 33.757 9.29854 33.9225 9.438 34.062L12.438 37.062C12.5773 37.2017 12.7429 37.3125 12.9251 37.3881C13.1073 37.4638 13.3027 37.5027 13.5 37.5027C13.6973 37.5027 13.8927 37.4638 14.0749 37.3881C14.2571 37.3125 14.4227 37.2017 14.562 37.062L23.562 28.062C23.7017 27.9227 23.8125 27.7571 23.8881 27.5749C23.9638 27.3927 24.0027 27.1973 24.0027 27C24.0027 26.8027 23.9638 26.6073 23.8881 26.4251C23.8125 26.2429 23.7017 26.0773 23.562 25.938Z" fill="white"/>
</svg>
