<svg width="43" height="43" viewBox="0 0 43 43" fill="none" xmlns="http://www.w3.org/2000/svg">
<path d="M12.0937 5.375C10.3118 5.375 8.60289 6.08287 7.34288 7.34288C6.08287 8.60289 5.375 10.3118 5.375 12.0938V30.9009C5.375 32.2715 5.7835 33.5427 6.48763 34.6069L18.2669 22.8276C19.1237 21.971 20.2857 21.4897 21.4973 21.4897C22.7089 21.4897 23.8709 21.971 24.7277 22.8276L25.6414 23.7414L31.2529 18.1326C32.0722 17.3126 33.0855 16.7129 34.1985 16.3892C35.3115 16.0654 36.4883 16.0282 37.6196 16.2809V12.0938C37.6196 10.3118 36.9118 8.60289 35.6517 7.34288C34.3917 6.08287 32.6828 5.375 30.9009 5.375H12.0937ZM30.9009 14.7839C30.9123 15.1446 30.8511 15.5038 30.721 15.8403C30.5908 16.1768 30.3944 16.4837 30.1433 16.7428C29.8923 17.002 29.5917 17.208 29.2595 17.3487C28.9272 17.4894 28.5701 17.5619 28.2093 17.5619C27.8485 17.5619 27.4914 17.4894 27.1592 17.3487C26.827 17.208 26.5264 17.002 26.2754 16.7428C26.0243 16.4837 25.8279 16.1768 25.6977 15.8403C25.5676 15.5038 25.5064 15.1446 25.5178 14.7839C25.5399 14.0848 25.8332 13.4217 26.3355 12.935C26.8379 12.4483 27.5099 12.1761 28.2093 12.1761C28.9088 12.1761 29.5808 12.4483 30.0832 12.935C30.5855 13.4217 30.8788 14.0848 30.9009 14.7839ZM35.6416 18.8313C34.6996 18.9369 33.8217 19.3607 33.153 20.0326L21.6344 31.5566C20.6809 32.515 20.0032 33.7126 19.6725 35.0235L18.8555 38.2754C18.7866 38.5501 18.7901 38.8381 18.8657 39.1111C18.9412 39.3841 19.0862 39.6329 19.2865 39.8332C19.4868 40.0335 19.7355 40.1784 20.0086 40.254C20.2816 40.3295 20.5695 40.333 20.8442 40.2641L24.0961 39.4498C25.407 39.1192 26.6046 38.4415 27.563 37.4879L39.087 25.9639C39.7031 25.3491 40.1126 24.5577 40.2585 23.6996C40.4045 22.8415 40.2798 21.9592 39.9017 21.1752C39.5236 20.3912 38.9108 19.7443 38.1484 19.3243C37.386 18.9043 36.5117 18.732 35.647 18.8313M23.7441 25.6414L19.7316 29.6539C18.4326 30.9567 17.5096 32.5863 17.0602 34.3704L16.2486 37.6196H12.0937C10.7231 37.6196 9.44925 37.2084 8.38769 36.507L20.167 24.725C20.3417 24.5503 20.5491 24.4117 20.7773 24.3171C21.0056 24.2226 21.2502 24.1739 21.4973 24.1739C21.7444 24.1739 21.989 24.2226 22.2173 24.3171C22.4455 24.4117 22.6529 24.5503 22.8276 24.725L23.7441 25.6414Z" fill="white"/>
</svg>
