<svg width="46" height="46" viewBox="0 0 46 39" fill="none" xmlns="http://www.w3.org/2000/svg">
<path d="M8.16786 24.0298C10.0058 25.1845 12.1167 25.7919 14.2676 25.7847C16.0695 25.77 17.851 25.389 19.5107 24.6636C20.7898 26.5301 21.4744 28.7621 21.4692 31.0494V36.8905C21.4688 37.1077 21.5115 37.3227 21.5948 37.5222C21.6781 37.7216 21.8002 37.9012 21.9535 38.0498C22.1068 38.1984 22.288 38.3128 22.4859 38.386C22.6838 38.4591 22.8941 38.4895 23.1039 38.4751C23.4979 38.4396 23.8644 38.2515 24.1299 37.9484C24.3954 37.6454 24.5402 37.2498 24.5354 36.841V34.377L31.9363 26.7275C33.0365 27.1517 34.2 27.3736 35.3742 27.3831C36.9907 27.3875 38.577 26.9303 39.9581 26.062C44.1338 23.4395 46.3817 17.4043 45.9467 9.91133C45.9248 9.52368 45.7659 9.15783 45.5003 8.88325C45.2346 8.60868 44.8807 8.44448 44.5056 8.42184C37.2561 7.98014 31.417 10.2956 28.8874 14.6115C27.8935 16.3032 27.4597 18.2834 27.6513 20.2526C27.6633 20.4052 27.7177 20.5509 27.808 20.6722C27.8984 20.7935 28.0208 20.8851 28.1604 20.936C28.3001 20.9869 28.451 20.9949 28.595 20.9591C28.739 20.9232 28.8698 20.845 28.9717 20.7339L32.6511 16.7527C32.9409 16.4681 33.3269 16.3117 33.7267 16.317C34.1264 16.3223 34.5084 16.4888 34.7911 16.781C35.0738 17.0732 35.2349 17.468 35.24 17.8812C35.2451 18.2944 35.0938 18.6933 34.8185 18.9929L24.4932 29.9362C24.4817 29.7818 24.4683 29.6273 24.453 29.4747C24.1177 26.5369 22.8635 23.7925 20.8809 21.6589L11.1861 11.07C10.8984 10.773 10.7367 10.37 10.7365 9.94966C10.7364 9.52936 10.8977 9.1262 11.1851 8.82887C11.4726 8.53155 11.8625 8.36441 12.2691 8.36422C12.6758 8.36403 13.0658 8.53082 13.3535 8.82788L22.7436 19.0919C22.8376 19.1948 22.9565 19.2698 23.088 19.3091C23.2196 19.3484 23.3589 19.3506 23.4915 19.3154C23.6241 19.2802 23.7452 19.209 23.8422 19.1091C23.9391 19.0092 24.0084 18.8842 24.0429 18.7472C24.9512 15.285 24.5507 11.8386 22.8164 8.87938C19.3938 3.04027 11.4295 -0.0852843 1.51048 0.51685C1.13542 0.539488 0.781464 0.703684 0.515804 0.978263C0.250149 1.25284 0.0912857 1.61869 0.0693855 2.00634C-0.50552 12.2604 2.51847 20.4923 8.16786 24.0298Z" fill="white"/>
</svg>
